<svg width="170" height="91" viewBox="0 0 170 91" fill="none" xmlns="http://www.w3.org/2000/svg">
<rect y="0.80957" width="170" height="90" rx="8" fill="white"/>
<path d="M84.27 47.3462L84.2176 47.4537L84.1303 47.6086L84.0662 47.6983L83.9961 47.7874L83.9146 47.883L83.8155 47.9785L83.763 48.0261L83.7104 48.0737L83.6465 48.1211L83.5881 48.163L83.5181 48.2047L83.4539 48.2466L83.3783 48.2825L83.3026 48.3181L83.2208 48.3477L83.1391 48.3774L83.052 48.4013L82.9584 48.4193L82.8652 48.4372L82.7663 48.4493L82.6671 48.4613H82.4338L82.3175 48.4493L82.2005 48.4313L82.0958 48.4133L81.9908 48.3835L81.8859 48.3539L81.7927 48.3122L81.6995 48.2703L81.6122 48.2231L81.5305 48.1754L81.4547 48.1158L81.3789 48.0561L81.3089 47.9966L81.2449 47.9307L81.1808 47.8591L81.1226 47.7874L81.07 47.7098L81.0176 47.6382L80.9709 47.5545L80.9303 47.4768L80.8893 47.3936L80.8545 47.3099L80.8254 47.2265L80.7965 47.1431L80.7732 47.0595L80.7498 46.9762L80.7324 46.8865L80.7207 46.8035L80.7089 46.7199L80.697 46.6365V46.5589L80.6912 46.4753L80.697 46.3443L80.7029 46.2133L80.7146 46.0883L80.7379 45.9628L80.7613 45.8377L80.7847 45.7123L80.8197 45.5872L80.8602 45.4677L80.901 45.3545L80.9477 45.2409L81.0003 45.1275L81.0587 45.0202L81.1169 44.9131L81.1808 44.8117L81.2509 44.7159L81.3209 44.6205L81.4025 44.5312L81.4782 44.4476L81.5655 44.3644L81.653 44.2866L81.7464 44.2149L81.84 44.1493L81.9389 44.0898L82.0438 44.0361L82.1487 43.9882L82.2536 43.9406L82.3701 43.9047L82.4809 43.875L82.5979 43.8513L82.72 43.8335L82.8423 43.8211L82.9707 43.8152L83.1045 43.8211L83.2327 43.8272L83.3495 43.845L83.466 43.863L83.5768 43.8926L83.6817 43.9223L83.7749 43.958L83.8685 43.994L83.9556 44.0359L84.0373 44.0831L84.1131 44.1311L84.1891 44.1787L84.2528 44.2323L84.3171 44.2864L84.3753 44.3403L84.4279 44.4L84.5213 44.5134L84.6027 44.627L84.6668 44.7404L84.7133 44.8416L84.7542 44.9372L84.7833 45.0208L84.8007 45.0864L84.8124 45.1342H86.9634L86.9694 45.0506L86.9747 44.9613V44.8599L86.9694 44.7527L86.9573 44.6391L86.9397 44.5197L86.9108 44.3945L86.8815 44.2637L86.841 44.1325L86.7944 43.9952L86.7418 43.8578L86.6777 43.715L86.6021 43.5775L86.5204 43.4344L86.4333 43.2971L86.3282 43.1598L86.2174 43.0223L86.0951 42.8913L85.9608 42.7601L85.8153 42.6351L85.658 42.5157L85.489 42.4086L85.3081 42.301L85.116 42.2057L84.906 42.1164L84.6846 42.033L84.4513 41.9671L84.2004 41.9076L83.9382 41.8602L83.6582 41.8242L83.3609 41.806L83.052 41.8005L82.8187 41.806L82.5915 41.8242L82.3701 41.8479L82.1487 41.8896L81.927 41.9435L81.7171 42.0032L81.5071 42.0747L81.3033 42.1583L81.105 42.2537L80.9127 42.3551L80.7263 42.4624L80.5454 42.5876L80.3707 42.7131L80.2017 42.85L80.0384 42.9994L79.8809 43.1543L79.7353 43.3155L79.5954 43.4884L79.4612 43.6672L79.3389 43.8523L79.2223 44.0428L79.1115 44.2398L79.0183 44.4484L78.9247 44.6572L78.8489 44.8779L78.7789 45.099L78.7148 45.3314L78.6683 45.5639L78.6273 45.8026L78.5984 46.0472L78.5804 46.2918L78.5751 46.5482L78.5804 46.7511L78.5925 46.9598L78.6099 47.1566L78.6388 47.3539L78.6736 47.5444L78.7203 47.7351L78.7668 47.92L78.8252 48.0992L78.8952 48.2721L78.9653 48.4451L79.0466 48.6123L79.14 48.7672L79.2334 48.9225L79.3383 49.0716L79.4493 49.2147L79.5716 49.3459L79.6937 49.4767L79.8289 49.6015L79.969 49.7151L80.1204 49.8224L80.2719 49.9236L80.4352 50.0194L80.6101 50.103L80.7852 50.1806L80.9659 50.246L81.1581 50.3114L81.3563 50.359L81.5604 50.4007L81.7759 50.4365L81.9916 50.4604L82.2189 50.4784H82.4522L82.7374 50.4723L83.0115 50.4545L83.2739 50.4187L83.5248 50.3711L83.7579 50.3114L83.9853 50.246L84.195 50.168L84.399 50.0789L84.5854 49.9835L84.7665 49.8762L84.9355 49.7687L85.0926 49.6496L85.2442 49.5302L85.3786 49.405L85.5125 49.2797L85.6291 49.1489L85.7403 49.0114L85.8448 48.8804L85.9384 48.7431L86.0257 48.6123L86.1015 48.4809L86.1776 48.3499L86.2356 48.225L86.294 48.0998L86.3464 47.9804L86.3874 47.867L86.4282 47.7594L86.4632 47.6582L86.5099 47.4853L86.5388 47.348H84.2706V47.3462H84.27ZM67.7853 47.9605L67.7913 47.8412L67.8146 47.6623L67.8609 47.412L67.931 47.0779L67.966 46.905L68.0303 46.6012L68.1174 46.1837L68.2284 45.6649L68.3511 45.0745L68.4908 44.43L68.6362 43.7502L68.7819 43.0525L68.9275 42.3664L69.0676 41.7041L69.1955 41.0896L69.3122 40.5408L69.4112 40.0757L69.487 39.7236L69.5337 39.4914L69.5511 39.4138H67.5402L65.8674 47.3049L65.8383 47.4302L65.8209 47.5497L65.8035 47.6748L65.7859 47.7941L65.7802 47.9131L65.7685 48.0269L65.7627 48.1403V48.2537L65.7685 48.4082L65.7802 48.5635L65.7976 48.7065L65.8209 48.8438L65.8559 48.975L65.8908 49.1003L65.9375 49.2194L65.9838 49.3328L66.0368 49.4403L66.1007 49.5415L66.1648 49.6312L66.2349 49.7203L66.305 49.8039L66.3867 49.8813L66.4625 49.953L66.5497 50.0184L66.637 50.0838L66.7241 50.1376L66.8173 50.1915L66.9166 50.2393L67.0098 50.2808L67.109 50.3225L67.2079 50.3523L67.307 50.3818L67.4119 50.4114L67.5111 50.4296L67.6155 50.4476L67.7206 50.4657L67.8196 50.4776L67.9187 50.4835L68.0236 50.4894H68.2569L68.3909 50.4772L68.5193 50.4711L68.6301 50.4592L68.8163 50.4296L68.9271 50.4114L68.9564 50.2923L68.9974 50.0836L69.0558 49.8094L69.1197 49.5111L69.1781 49.2188L69.2362 48.9624L69.2772 48.7775L69.2946 48.6939H69.2303L69.1137 48.6998L68.9505 48.7055L68.7698 48.7115L68.6357 48.7055L68.5134 48.6935L68.3968 48.6757L68.2977 48.6518L68.2104 48.6222L68.1291 48.5864L68.059 48.5445L67.9949 48.4967L67.9425 48.443L67.8958 48.3833L67.8607 48.324L67.8318 48.2582L67.8085 48.1867L67.7968 48.115L67.7849 48.0375V47.9601H67.7853V47.9605ZM96.4182 41.8232H93.6025L89.9943 45.1512L91.2124 39.3956H89.1782L86.8756 50.3168H88.9039L89.4635 47.6627L90.7114 46.6484L92.437 50.3168H94.6986L92.2506 45.4019L96.4182 41.8232ZM63.4077 42.4075L63.402 42.3061L63.3901 42.2103L63.3669 42.1212L63.3321 42.0255L63.2852 41.9418L63.2328 41.8586L63.1685 41.7869L63.0927 41.7153L62.9993 41.6498L62.9003 41.5903L62.7893 41.5425L62.6668 41.5008L62.5328 41.4648L62.3813 41.4411L62.218 41.4233L62.049 41.4172H59.9916L59.5252 43.6243H61.7755L61.8745 43.6182L61.9736 43.6121L62.0726 43.6004L62.1658 43.5826L62.2534 43.5702L62.3407 43.5467L62.4278 43.5228L62.5036 43.4989L62.5795 43.4751L62.6553 43.4455L62.7252 43.4094L62.7895 43.3738L62.8534 43.338L62.9118 43.3023L62.9702 43.2604L63.0226 43.2185L63.0753 43.1707L63.1162 43.1231L63.1627 43.0753L63.1979 43.028L63.2387 42.9741L63.2676 42.9263L63.2965 42.8727L63.3256 42.8129L63.343 42.7591L63.3663 42.7054L63.3782 42.6457L63.3897 42.5859L63.4016 42.5264L63.4073 42.4671V42.4075H63.4077ZM62.72 46.8094L62.7141 46.7079L62.7022 46.6124L62.6791 46.5109L62.6439 46.4097L62.6264 46.3619L62.5974 46.3082L62.574 46.2604L62.539 46.2131L62.5038 46.1653L62.4689 46.1238L62.4226 46.076L62.3759 46.0343L62.3294 45.9928L62.271 45.9512L62.2129 45.9152L62.1486 45.8794L62.0787 45.8433L62.0027 45.8136L61.9269 45.784L61.8397 45.7542L61.7524 45.7301L61.6532 45.7068L61.5541 45.6886L61.4494 45.6708L61.3325 45.6587L61.2161 45.653L61.0936 45.6469H59.1003L58.5405 48.2833H60.7732L60.8953 48.2772L61.0176 48.2653L61.1287 48.2529L61.2395 48.241L61.3445 48.2231L61.4494 48.1992L61.5486 48.1695L61.642 48.1458L61.7352 48.1097L61.8224 48.0802L61.9042 48.0385L61.98 48.0026L62.0555 47.9548L62.1313 47.9129L62.1955 47.8655L62.2596 47.8119L62.3177 47.7578L62.3702 47.704L62.423 47.6442L62.4693 47.5847L62.516 47.5252L62.5511 47.4594L62.5859 47.3942L62.615 47.3286L62.6441 47.2569L62.6672 47.1852L62.6846 47.1135L62.7022 47.042L62.708 46.9643L62.7139 46.8865L62.72 46.8094ZM56.7041 46.9408L56.751 46.7258L56.8209 46.3921L56.9143 45.9567L57.0251 45.4315L57.1474 44.8471L57.2816 44.2089L57.4272 43.5467L57.5673 42.8785L57.7072 42.2164L57.8414 41.578L57.9696 40.9936L58.0804 40.4687L58.1677 40.0271L58.2435 39.6934L58.29 39.4729L58.3019 39.4012H62.3999L62.6447 39.4191L62.8716 39.4369L63.0931 39.4669L63.303 39.5088L63.5011 39.5503L63.6875 39.6041L63.8624 39.6635L64.0314 39.7293L64.1832 39.7951L64.3289 39.8722L64.4688 39.95L64.5968 40.0334L64.7134 40.1229L64.8244 40.2183L64.9292 40.3138L65.0226 40.4094L65.1044 40.5109L65.1859 40.6121L65.256 40.7196L65.3143 40.8267L65.3723 40.9282L65.4251 41.0355L65.4657 41.1426L65.5067 41.2499L65.5358 41.3512L65.5647 41.4587L65.5821 41.5599L65.5995 41.6614L65.6114 41.7568L65.6169 41.8523V41.9479L65.6114 42.1389L65.5935 42.3294L65.5704 42.5025L65.5356 42.6754L65.4887 42.8305L65.4362 42.9856L65.3719 43.129L65.3082 43.2661L65.2322 43.3971L65.1564 43.5166L65.0694 43.63L64.9817 43.7375L64.8944 43.8387L64.801 43.928L64.7021 44.0173L64.6089 44.1007L64.5097 44.1724L64.4106 44.2439L64.3116 44.3034L64.2182 44.3632L64.0318 44.4644L63.8569 44.548L63.7049 44.6134L63.5769 44.6612L63.478 44.6908L63.4136 44.7147L63.4661 44.7325L63.5417 44.7635L63.6351 44.8052L63.7398 44.8649L63.8567 44.9366L63.9845 45.0202L64.0489 45.0741L64.1128 45.1277L64.1828 45.1875L64.2467 45.2472L64.3111 45.3126L64.3748 45.3902L64.4331 45.4677L64.4975 45.5455L64.5501 45.635L64.6083 45.7301L64.6607 45.8259L64.7072 45.9274L64.7537 46.0407L64.7887 46.1543L64.8238 46.2795L64.8527 46.4048L64.876 46.5358L64.8936 46.6788L64.9057 46.8221L64.911 46.9774L64.9057 47.1443L64.8936 47.3172L64.8705 47.4784L64.8353 47.645L64.7947 47.8062L64.7418 47.9615L64.6839 48.1168L64.6136 48.2659L64.5378 48.4149L64.4508 48.5576L64.3574 48.701L64.2582 48.832L64.1474 48.9632L64.031 49.0942L63.9086 49.2135L63.7746 49.3271L63.6345 49.4405L63.4888 49.5478L63.3317 49.6492L63.1742 49.7383L63.0052 49.8276L62.8305 49.9113L62.6441 49.9829L62.4577 50.0546L62.2651 50.1142L62.0611 50.1678L61.8571 50.2097L61.6416 50.2516L61.4257 50.2812L61.1985 50.299L60.9713 50.3112L60.7323 50.3172H59.578L59.3799 50.3112L59.1872 50.299L59.001 50.2812L58.8261 50.2516L58.6511 50.2158L58.4821 50.1678L58.325 50.1142L58.1732 50.0546L58.0216 49.989L57.8817 49.9115L57.7476 49.8339L57.6253 49.7446L57.5028 49.6551L57.392 49.5539L57.2871 49.4466L57.188 49.3328L57.0945 49.2194L57.0132 49.0944L56.9372 48.9691L56.8731 48.8383L56.8092 48.7008L56.7625 48.5574L56.7162 48.4147L56.6812 48.2657L56.6521 48.1102L56.6347 47.949L56.623 47.7882V47.6266L56.6285 47.4596L56.6459 47.2866L56.6693 47.1198L56.7041 46.9408ZM102.195 42.4075V42.3061L102.177 42.2103L102.154 42.1212L102.119 42.0255L102.078 41.9418L102.02 41.8586L101.956 41.7869L101.88 41.7153L101.793 41.6498L101.688 41.5903L101.577 41.5425L101.454 41.5008L101.32 41.4648L101.169 41.4411L101.005 41.4233L100.831 41.4172H98.7786L98.3124 43.6243H100.563L100.662 43.6182L100.761 43.6121L100.86 43.6004L100.953 43.5826L101.04 43.5702L101.128 43.5467L101.215 43.5228L101.291 43.4989L101.367 43.4751L101.443 43.4455L101.513 43.4094L101.577 43.3738L101.641 43.338L101.699 43.3023L101.757 43.2604L101.81 43.2185L101.863 43.1707L101.903 43.1231L101.95 43.0753L101.99 43.028L102.026 42.9741L102.055 42.9263L102.084 42.8727L102.113 42.8129L102.136 42.7591L102.154 42.7054L102.171 42.6457L102.183 42.5859L102.189 42.5264L102.195 42.4671L102.195 42.4075ZM101.507 46.8094L101.501 46.7079L101.489 46.6124L101.466 46.5109L101.431 46.4097L101.414 46.3619L101.385 46.3082L101.361 46.2604L101.326 46.2131L101.291 46.1653L101.256 46.1238L101.21 46.076L101.163 46.0343L101.116 45.9928L101.058 45.9512L101 45.9152L100.936 45.8794L100.866 45.8433L100.79 45.8136L100.714 45.784L100.627 45.7542L100.54 45.7301L100.441 45.7068L100.342 45.6886L100.237 45.6708L100.126 45.6587L100.003 45.653L99.8812 45.6469H97.8875L97.3281 48.2835H99.5662L99.6831 48.2774L99.8052 48.2655L99.9163 48.2531L100.027 48.2412L100.138 48.2233L100.237 48.1994L100.336 48.1699L100.43 48.146L100.523 48.1099L100.61 48.0804L100.692 48.0387L100.774 48.0028L100.844 47.955L100.919 47.9131L100.983 47.866L101.048 47.8121L101.106 47.758L101.158 47.7042L101.211 47.6444L101.258 47.5849L101.304 47.5254L101.339 47.4596L101.374 47.3944L101.409 47.3288L101.432 47.2571L101.456 47.1854L101.473 47.1137L101.491 47.0422L101.497 46.9645L101.502 46.8869L101.507 46.8094ZM95.4913 46.9408L95.5376 46.7258L95.6077 46.3921L95.7013 45.9567L95.8121 45.4315L95.9346 44.8471L96.0688 44.2089L96.2085 43.5467L96.3541 42.8785L96.4942 42.2164L96.6282 41.578L96.7507 40.9936L96.8615 40.4687L96.9551 40.0271L97.0309 39.6934L97.0715 39.4729L97.0893 39.4012H101.187L101.432 39.4191L101.665 39.4369L101.881 39.4669L102.091 39.5088L102.289 39.5503L102.475 39.6041L102.65 39.6635L102.819 39.7293L102.977 39.7951L103.122 39.8722L103.256 39.95L103.384 40.0334L103.501 40.1229L103.612 40.2183L103.717 40.3138L103.81 40.4094L103.892 40.5109L103.973 40.6121L104.043 40.7196L104.107 40.8267L104.166 40.9282L104.212 41.0355L104.259 41.1426L104.294 41.2499L104.323 41.3512L104.352 41.4587L104.375 41.5599L104.387 41.6614L104.399 41.7568L104.405 41.8523L104.41 41.9479L104.405 42.1389L104.387 42.3294L104.358 42.5025L104.323 42.6754L104.276 42.8305L104.223 42.9856L104.165 43.129L104.095 43.2661L104.025 43.3971L103.944 43.5166L103.862 43.63L103.775 43.7375L103.682 43.8387L103.588 43.928L103.489 44.0173L103.396 44.1007L103.297 44.1724L103.198 44.2439L103.098 44.3034L103.005 44.3632L102.819 44.4644L102.65 44.548L102.493 44.6134L102.364 44.6612L102.265 44.6908L102.201 44.7147L102.254 44.7325L102.329 44.7635L102.422 44.8052L102.527 44.8649L102.644 44.9366L102.772 45.0202L102.835 45.0741L102.9 45.1277L102.97 45.1875L103.034 45.2472L103.098 45.3126L103.162 45.3902L103.22 45.4677L103.284 45.5455L103.343 45.635L103.395 45.7301L103.448 45.8259L103.494 45.9274L103.541 46.0407L103.582 46.1543L103.617 46.2795L103.646 46.4048L103.669 46.5358L103.686 46.6788L103.698 46.8221V46.9774L103.693 47.1443L103.681 47.3172L103.657 47.4784L103.622 47.645L103.582 47.8062L103.529 47.9615L103.471 48.1168L103.407 48.2659L103.325 48.4149L103.243 48.5576L103.15 48.701L103.045 48.832L102.934 48.9632L102.818 49.0942L102.695 49.2135L102.561 49.3271L102.421 49.4405L102.276 49.5478L102.118 49.6492L101.961 49.7383L101.792 49.8276L101.617 49.9113L101.431 49.9829L101.244 50.0546L101.052 50.1142L100.848 50.1678L100.644 50.2097L100.428 50.2516L100.212 50.2812L99.9851 50.299L99.7581 50.3112L99.5191 50.3172H98.3652L98.1668 50.3112L97.9742 50.299L97.788 50.2812L97.6131 50.2516L97.4381 50.2158L97.2691 50.1678L97.1116 50.1142L96.9596 50.0546L96.8083 49.989L96.6682 49.9115L96.534 49.8339L96.4117 49.7446L96.2894 49.6551L96.1786 49.5539L96.0735 49.4466L95.9746 49.3328L95.8814 49.2194L95.7996 49.0944L95.7236 48.9691L95.6599 48.8383L95.5956 48.7008L95.5491 48.5574L95.5026 48.4147L95.4676 48.2657L95.4387 48.1102L95.4211 47.949L95.409 47.7882V47.6266L95.4147 47.4596L95.4324 47.2866L95.4557 47.1198L95.4913 46.9408ZM118.347 41.8288L118.144 41.8349L117.951 41.8469L117.758 41.8647L117.572 41.8886L117.386 41.9244L117.21 41.9663L117.036 42.0139L116.867 42.0736L116.698 42.1334L116.54 42.2051L116.383 42.2885L116.231 42.3721L116.079 42.4679L115.94 42.5633L115.8 42.6706L115.672 42.7898L115.544 42.9089L115.415 43.0401L115.299 43.1774L115.188 43.3208L115.077 43.4696L114.972 43.6251L114.879 43.7919L114.785 43.9588L114.698 44.1378L114.617 44.3229L114.541 44.5195L114.465 44.7165L114.401 44.9192L114.343 45.1342L114.284 45.3549L114.238 45.5756L114.191 45.8022L114.133 46.0827L114.069 46.4048L113.993 46.763L113.912 47.1447L113.83 47.5381L113.748 47.9439L113.661 48.3438L113.579 48.7312L113.504 49.1011L113.434 49.4348L113.37 49.727L113.317 49.9716L113.282 50.1623L113.253 50.2816L113.248 50.3233H115.259L115.27 50.2816L115.294 50.1678L115.329 49.989L115.381 49.7568L115.44 49.4761L115.51 49.154L115.58 48.802L115.661 48.4266L115.743 48.0447L115.824 47.6513L115.906 47.2638L115.988 46.8938L116.058 46.5423L116.128 46.2199L116.186 45.9393L116.239 45.7073L116.268 45.576L116.303 45.4452L116.338 45.3256L116.373 45.2061L116.414 45.0992L116.455 44.9917L116.501 44.8904L116.547 44.7947L116.6 44.7056L116.653 44.6159L116.705 44.5324L116.758 44.4608L116.817 44.3834L116.88 44.3176L116.944 44.2518L117.008 44.1981L117.073 44.1386L117.142 44.091L117.212 44.0434L117.288 44.0017L117.358 43.9659L117.44 43.9298L117.516 43.894L117.597 43.8703L117.679 43.8464L117.76 43.8225L117.848 43.8047L117.935 43.7928L118.022 43.7804L118.116 43.7747L118.203 43.7687H118.302L118.524 43.7747L118.698 43.7867L118.838 43.8045L118.937 43.8223L118.966 43.6672L119.013 43.4465L119.071 43.1721L119.135 42.8739L119.194 42.5756L119.258 42.2954L119.304 42.0688L119.339 41.9017L119.252 41.8896L119.153 41.8778L119.042 41.8655L118.925 41.8535L118.791 41.8477L118.651 41.8357H118.506L118.347 41.8288ZM125.202 53.5673L131.964 41.8288H129.784L126.677 47.3522L125.954 41.8228H123.623L123.378 41.8284L123.139 41.8345L122.906 41.8523L122.684 41.8819L122.469 41.9117L122.259 41.9536L122.055 42.001L121.857 42.0548L121.67 42.1146L121.49 42.186L121.314 42.2577L121.145 42.3411L120.982 42.4302L120.831 42.5317L120.679 42.6331L120.539 42.7467L120.405 42.8601L120.271 42.9854L120.148 43.1227L120.032 43.2602L119.921 43.4034L119.816 43.5585L119.717 43.7193L119.624 43.8806L119.536 44.0598L119.455 44.2388L119.379 44.4237L119.315 44.6144L119.245 44.8173L119.187 45.0261L119.134 45.2407L119.088 45.4618L119.035 45.7119L118.971 46.0106L118.901 46.3506L118.82 46.7203L118.738 47.1135L118.651 47.5193L118.563 47.9307L118.482 48.3365L118.395 48.73L118.319 49.094L118.249 49.434L118.185 49.7262L118.132 49.9765L118.091 50.1615L118.068 50.2808L118.056 50.3225H120.073L120.085 50.2808L120.108 50.167L120.143 49.9882L120.196 49.756L120.254 49.4696L120.324 49.1418L120.4 48.7832L120.482 48.4017L120.569 48.002L120.65 47.5962L120.738 47.1848L120.825 46.7849L120.907 46.4032L120.982 46.0391L121.046 45.7111L121.11 45.425L121.139 45.2997L121.168 45.1802L121.209 45.0668L121.244 44.9597L121.291 44.8524L121.337 44.757L121.39 44.6616L121.442 44.578L121.501 44.4948L121.565 44.417L121.623 44.3453L121.693 44.2739L121.763 44.2141L121.833 44.1548L121.909 44.1007L121.985 44.0534L122.066 44.0114L122.148 43.9695L122.229 43.9339L122.317 43.9041L122.404 43.8802L122.491 43.8563L122.579 43.8385L122.672 43.8266L122.766 43.8205L122.864 43.8146H122.958L123.057 43.8205L123.15 43.8266L123.249 43.8385L123.349 43.8563L123.453 43.8742L123.873 41.8704L123.943 42.2759L124.019 42.7649L124.106 43.3137L124.205 43.9221L124.31 44.5662L124.415 45.2345L124.526 45.9083L124.631 46.5763L124.735 47.2265L124.829 47.8348L124.916 48.3896L124.998 48.8786L125.062 49.2844L125.108 49.5885L125.143 49.7855L125.149 49.8572L123.045 53.5667H125.202V53.5673H125.202ZM72.8508 44.4893L72.8918 44.4237L72.979 44.3101L73.043 44.2447L73.1188 44.1671L73.2122 44.0896L73.3172 44.006L73.4336 43.9284L73.5678 43.8511L73.6378 43.8148L73.7195 43.779L73.7953 43.7494L73.8824 43.7136L73.9697 43.6899L74.0631 43.6601L74.1622 43.6423L74.2613 43.6245L74.3662 43.6063L74.4772 43.5941L74.5938 43.5882H74.856L74.9959 43.6004L75.118 43.6182L75.2407 43.6421L75.3454 43.6658L75.4502 43.7016L75.5375 43.7377L75.619 43.7792L75.6891 43.827L75.7528 43.8806L75.8055 43.9345L75.8464 43.9942L75.8812 44.0538L75.9046 44.119L75.922 44.1789L75.9279 44.2504L75.922 44.2984L75.9161 44.3401L75.9044 44.382L75.887 44.4235L75.8634 44.4652L75.8401 44.5013L75.811 44.5369L75.7762 44.5667L75.7352 44.6025L75.6942 44.6321L75.6479 44.662L75.5953 44.6859L75.4785 44.7396L75.3444 44.7872L75.1926 44.8347L75.0295 44.8763L74.8489 44.9123L74.6508 44.9538L74.2075 45.0255L73.712 45.0972L73.4906 45.133L73.2691 45.1688L73.059 45.2108L72.849 45.2525L72.6508 45.2999L72.4527 45.3476L72.2661 45.3952L72.0799 45.4489L71.9051 45.5086L71.7361 45.5681L71.5671 45.634L71.4096 45.7056L71.258 45.7773L71.1122 45.849L70.9723 45.9326L70.8441 46.0158L70.7218 46.1055L70.5991 46.1946L70.4944 46.2904L70.3895 46.3919L70.2963 46.4988L70.2086 46.6124L70.1271 46.726L70.0571 46.8454L69.9931 46.9704L69.9348 47.1016L69.8883 47.2389L69.853 47.3818L69.818 47.5252L69.8004 47.6805L69.783 47.8354V48.1217L69.7951 48.2353L69.8067 48.3546L69.8301 48.4681L69.8532 48.5876L69.8885 48.701L69.9233 48.8146L69.9698 48.9217L70.0165 49.0288L70.0745 49.1363L70.1327 49.2437L70.2027 49.3451L70.2728 49.4405L70.3485 49.5361L70.4301 49.6318L70.5175 49.7209L70.6111 49.8046L70.7101 49.8878L70.815 49.9653L70.926 50.037L71.0368 50.1028L71.1591 50.1678L71.2814 50.2275L71.4096 50.2816L71.5438 50.3292L71.6839 50.3709L71.8293 50.4069L71.9811 50.4365L72.1325 50.4604L72.29 50.4784L72.4533 50.4906H72.7622L72.8963 50.4784L73.0305 50.4665L73.1587 50.4485L73.281 50.4304L73.3978 50.4067L73.5086 50.3768L73.6194 50.3472L73.7243 50.3112L73.8292 50.2753L73.9283 50.2336L74.0213 50.1919L74.1905 50.1085L74.348 50.0129L74.4879 49.9234L74.6104 49.8343L74.7151 49.7507L74.8085 49.6733L74.9365 49.548L74.9949 49.4883L75.0008 49.6733L75.0183 49.8817L75.0357 50.1028L75.0531 50.3176H77.1343L77.1054 50.1623L77.0765 49.9773L77.0591 49.87L77.047 49.7568L77.0353 49.6316L77.0294 49.5004L77.0234 49.3571L77.0294 49.2084V49.0473L77.0468 48.8802L77.0642 48.7012L77.0876 48.5165L77.1224 48.3193L77.1633 48.1106L77.2217 47.8364L77.2977 47.4847L77.385 47.0671L77.4841 46.6138L77.5831 46.1485L77.6822 45.6834L77.7695 45.248L77.8512 44.8601L77.8801 44.693L77.8977 44.5322L77.9153 44.3711L77.921 44.2159L77.9153 44.0608L77.9098 43.9116L77.8924 43.7685L77.869 43.6255L77.834 43.4941L77.793 43.357L77.7404 43.2317L77.6879 43.1065L77.6177 42.9873L77.5478 42.8739L77.4663 42.7666L77.3731 42.6651L77.274 42.5639L77.1691 42.4742L77.0525 42.3851L76.9302 42.3014L76.802 42.2298L76.6621 42.1583L76.5103 42.0925L76.353 42.0332L76.1895 41.9854L76.0148 41.938L75.8341 41.9019L75.6416 41.8659L75.4435 41.8422L75.2334 41.8244L75.0179 41.8122L74.7907 41.8062L74.499 41.8185L74.2247 41.8363L73.9568 41.8659L73.7059 41.9078L73.4668 41.9617L73.2397 42.0271L73.0238 42.0988L72.8199 42.1763L72.6274 42.2656L72.4412 42.3612L72.2722 42.4568L72.1089 42.5643L71.9514 42.6716L71.8115 42.785L71.6774 42.8986L71.5551 43.018L71.4385 43.1314L71.3277 43.2505L71.2285 43.3702L71.1413 43.4836L71.054 43.603L70.9782 43.7101L70.9139 43.8175L70.8502 43.9189L70.7451 44.1096L70.6693 44.2708L70.6113 44.402L70.5759 44.4911H72.8506V44.4893H72.8508ZM73.6087 46.7021L73.8068 46.666L74.0692 46.6302L74.3605 46.5824L74.6636 46.535L74.9553 46.4874L75.2118 46.4514L75.4101 46.4218L75.5264 46.404L75.4973 46.5233L75.4625 46.6606L75.4334 46.8039L75.4045 46.9347L75.3756 47.0303L75.3464 47.1261L75.3175 47.2152L75.2765 47.3045L75.2355 47.394L75.189 47.4772L75.1421 47.5549L75.0897 47.6325L75.0313 47.7102L74.9731 47.7819L74.9092 47.8536L74.8392 47.9253L74.7691 47.9905L74.6991 48.0502L74.6231 48.1097L74.5414 48.1638L74.46 48.2175L74.3783 48.2713L74.291 48.3189L74.2038 48.3608L74.1163 48.4025L74.0229 48.4384L73.9297 48.4744L73.8305 48.504L73.7314 48.5338L73.6382 48.5572L73.5333 48.5755L73.4342 48.5933L73.3295 48.6054L73.2248 48.6176L73.1197 48.6235H73.0151L72.887 48.6176L72.7645 48.6054L72.6422 48.5876L72.5374 48.5576L72.4325 48.5163L72.3391 48.4746L72.2576 48.4268L72.1758 48.3671L72.1119 48.3078L72.0476 48.242L71.9952 48.1703L71.9542 48.0925L71.9192 48.015L71.896 47.9314L71.8841 47.8481L71.8782 47.7586L71.8841 47.687L71.896 47.6094L71.9192 47.5319L71.9542 47.4602L72.0007 47.3826L72.0589 47.3051L72.1345 47.2334L72.2221 47.1617L72.3331 47.0902L72.4552 47.0244L72.5953 46.959L72.7525 46.8995L72.9331 46.8398L73.1372 46.792L73.3586 46.7446L73.6087 46.7021ZM109.085 43.6838H109.213L109.33 43.6899L109.446 43.7018L109.557 43.7197L109.662 43.7435L109.761 43.7674L109.86 43.797L109.953 43.827L110.041 43.8628L110.122 43.8985L110.198 43.9404L110.274 43.9879L110.344 44.0359L110.408 44.0831L110.466 44.1372L110.525 44.191L110.577 44.2504L110.63 44.3101L110.671 44.3698L110.711 44.4294L110.746 44.4891L110.782 44.5545L110.811 44.6203L110.834 44.6861L110.857 44.7513L110.875 44.8171L110.892 44.8825L110.898 44.9483L110.903 45.0137L110.909 45.0793V45.2106H107.027L107.05 45.1213L107.091 45.0198L107.138 44.9064L107.208 44.7872L107.284 44.662L107.377 44.5365L107.424 44.4711L107.482 44.4115L107.54 44.3457L107.604 44.2864L107.668 44.2267L107.732 44.1669L107.808 44.1074L107.884 44.0538L107.965 43.9999L108.047 43.9523L108.134 43.9047L108.222 43.863L108.321 43.8211L108.414 43.7855L108.519 43.7557L108.624 43.732L108.735 43.7081L108.846 43.6962L108.962 43.684H109.085V43.6838H109.085ZM110.28 47.7698L110.262 47.8117L110.233 47.8591L110.192 47.9127L110.146 47.9785L110.082 48.0502L110.012 48.1219L109.93 48.1936L109.837 48.2711L109.726 48.3428L109.61 48.408L109.475 48.4738L109.336 48.5275L109.254 48.5514L109.178 48.5751L109.091 48.5929L109.003 48.6111L108.916 48.623L108.823 48.6289L108.724 48.6348L108.625 48.6405L108.479 48.6348L108.339 48.6226L108.211 48.6046L108.089 48.5807L107.966 48.5449L107.855 48.5092L107.751 48.4673L107.657 48.42L107.564 48.3659L107.477 48.312L107.395 48.2523L107.319 48.1871L107.249 48.1213L107.179 48.0496L107.121 47.9779L107.068 47.9062L107.016 47.8346L106.969 47.757L106.928 47.6853L106.888 47.6139L106.858 47.5359L106.83 47.4644L106.801 47.3927L106.783 47.3271L106.748 47.1959L106.73 47.0767L106.719 46.9754L106.724 46.8918H112.868L112.886 46.8201L112.909 46.7065L112.938 46.5692L112.967 46.4083L112.996 46.2232L113.019 46.0266L113.037 45.8178L113.043 45.6028L113.037 45.4181L113.025 45.2334L113.008 45.0484L112.979 44.8694L112.944 44.6902L112.903 44.5172L112.85 44.3385L112.792 44.1716L112.728 44.0044L112.652 43.8375L112.57 43.6822L112.483 43.5271L112.384 43.372L112.279 43.2286L112.168 43.0915L112.052 42.9541L111.924 42.823L111.783 42.7038L111.644 42.5843L111.492 42.4772L111.329 42.3758L111.166 42.2804L110.991 42.1909L110.804 42.1133L110.618 42.0417L110.42 41.9761L110.21 41.9222L110 41.8748L109.778 41.8388L109.545 41.8149L109.312 41.8027L109.061 41.7971L108.84 41.8027L108.613 41.8209L108.396 41.8505L108.175 41.8864L107.965 41.94L107.755 42.0058L107.551 42.0775L107.353 42.1609L107.161 42.2565L106.968 42.3577L106.787 42.4653L106.607 42.5902L106.438 42.7153L106.275 42.8526L106.111 42.996L105.96 43.1511L105.814 43.3123L105.68 43.4791L105.552 43.652L105.43 43.831L105.313 44.0159L105.208 44.2068L105.115 44.4034L105.027 44.6065L104.946 44.8153L104.882 45.0241L104.817 45.2448L104.771 45.4596L104.736 45.6862L104.707 45.913L104.69 46.1394L104.684 46.3718L104.69 46.5927L104.702 46.8134L104.719 47.0283L104.748 47.237L104.783 47.4397L104.83 47.6424L104.882 47.8394L104.94 48.0243L105.01 48.2094L105.086 48.3884L105.168 48.5613L105.261 48.7281L105.36 48.8893L105.465 49.0383L105.582 49.1872L105.698 49.3247L105.827 49.4557L105.966 49.5808L106.106 49.7001L106.258 49.8137L106.415 49.9153L106.578 50.0107L106.747 50.0941L106.928 50.1717L107.109 50.2433L107.301 50.3029L107.5 50.3569L107.703 50.3986L107.914 50.4345L108.135 50.4584L108.356 50.4764H108.59L108.87 50.4703L109.138 50.4525L109.394 50.4167L109.639 50.3747L109.872 50.3154L110.094 50.2498L110.304 50.1721L110.502 50.0884L110.688 49.9991L110.863 49.8979L111.026 49.7965L111.184 49.6831L111.329 49.5697L111.463 49.4561L111.592 49.3366L111.708 49.2115L111.819 49.0922L111.918 48.9727L112.012 48.8537L112.093 48.7342L112.169 48.6145L112.239 48.5076L112.303 48.3938L112.356 48.2924L112.449 48.1075L112.513 47.9524L112.554 47.8388L112.583 47.7671H110.281V47.7698H110.28ZM43.9557 38.1549L43.95 38.0531L43.9381 37.9519L43.915 37.8504L43.8859 37.749L43.8396 37.6477L43.7865 37.5463L43.7517 37.4989L43.7167 37.4509L43.6757 37.409L43.6351 37.3614L43.5825 37.3197L43.536 37.2778L43.4776 37.2419L43.4193 37.2061L43.3553 37.1705L43.2855 37.1346L43.2095 37.1047L43.1339 37.0812L43.0522 37.0514L42.9651 37.0336L42.8717 37.0095L42.7726 36.9973L42.6679 36.9858L42.5571 36.9738L42.4461 36.9678H40.2952L39.718 39.6936H41.9858L42.1316 39.6876L42.2658 39.6758L42.3995 39.6578L42.522 39.64L42.6445 39.6161L42.7551 39.5922L42.86 39.5563L42.9592 39.5266L43.0583 39.4909L43.1456 39.449L43.2273 39.4012L43.3084 39.3593L43.3785 39.3057L43.4485 39.2581L43.5125 39.2044L43.5708 39.1447L43.6235 39.0908L43.6759 39.0311L43.7169 38.9657L43.7578 38.906L43.7929 38.8406L43.8279 38.7748L43.8572 38.7094L43.8803 38.6379L43.8977 38.5721L43.9154 38.5004L43.9328 38.4348L43.9502 38.2918L43.9557 38.1549ZM49.4178 38.1549L49.4118 38.0531L49.3998 37.9519L49.3766 37.8504L49.3475 37.749L49.3244 37.6953L49.301 37.6477L49.2777 37.5941L49.2488 37.5463L49.2137 37.4989L49.1783 37.4509L49.1378 37.409L49.0972 37.3614L49.0448 37.3197L48.9921 37.2778L48.9395 37.2419L48.8811 37.2061L48.8172 37.1705L48.7471 37.1346L48.6717 37.1049L48.5959 37.0812L48.5142 37.0514L48.4268 37.0336L48.3336 37.0097L48.2344 36.9975L48.1295 36.9858L48.0247 36.9736L47.9079 36.9678H45.7569L45.1858 39.6934H47.4476L47.5933 39.6874L47.7274 39.6756L47.8618 39.6576L47.9839 39.6398L48.1062 39.6159L48.2172 39.592L48.3221 39.5561L48.427 39.5264L48.5204 39.4907L48.6074 39.4488L48.6951 39.401L48.7705 39.3591L48.8463 39.3055L48.9106 39.2579L48.9745 39.2042L49.0327 39.1445L49.0851 39.0906L49.1378 39.0309L49.1783 38.9655L49.2193 38.9058L49.2545 38.8404L49.2893 38.7746L49.3184 38.7091L49.3418 38.6377L49.3592 38.5719L49.3766 38.5002L49.394 38.4346L49.4116 38.2916L49.4178 38.1549ZM43.2214 42.2585L43.2154 42.1631L43.2038 42.0617L43.1863 41.9544L43.1511 41.8529L43.1337 41.8052L43.1104 41.7515L43.0815 41.7037L43.0522 41.6559L43.0171 41.6085L42.9823 41.5608L42.9414 41.5134L42.9006 41.4717L42.8541 41.4297L42.8017 41.3882L42.7433 41.3465L42.6849 41.3107L42.6206 41.2744L42.5507 41.2449L42.4807 41.2151L42.399 41.1853L42.3174 41.1615L42.23 41.1378L42.1366 41.1199L42.0376 41.1019L41.9329 41.0896L41.8279 41.0776L41.7113 41.0715H39.5664L38.9894 43.8033H41.0996L41.2512 43.7972L41.3969 43.7915L41.537 43.7792L41.665 43.7672L41.7932 43.7494L41.9098 43.7255L42.0206 43.6958L42.1316 43.666L42.2306 43.63L42.3238 43.5941L42.4114 43.5522L42.4987 43.5107L42.5745 43.4629L42.6505 43.4153L42.7144 43.3615L42.7787 43.3076L42.8369 43.2539L42.8953 43.1942L42.9418 43.1345L42.9885 43.0747L43.029 43.0093L43.064 42.9437L43.0931 42.8783L43.122 42.8127L43.1454 42.7473L43.1687 42.6756L43.1861 42.61L43.1978 42.5384L43.2152 42.4011L43.2214 42.2585ZM48.6832 42.2585L48.6775 42.1631L48.6656 42.0617L48.6482 41.9544L48.6132 41.8529L48.5957 41.8052L48.5724 41.7515L48.5433 41.7039L48.5144 41.6563L48.4794 41.6087L48.4442 41.5606L48.4032 41.5132L48.3622 41.4715L48.3159 41.4295L48.2633 41.388L48.2049 41.3463L48.1467 41.3105L48.0828 41.2742L48.0128 41.2447L47.9427 41.2149L47.8614 41.1851L47.7797 41.1612L47.6922 41.1372L47.5988 41.1193L47.4997 41.1013L47.4005 41.089L47.2895 41.077L47.1731 41.0709H45.0283L44.4512 43.8029H46.5615L46.7131 43.7968L46.8587 43.7911L46.9984 43.7788L47.1264 43.7668L47.2547 43.749L47.3712 43.7251L47.4822 43.6954L47.5931 43.6656L47.6922 43.6295L47.7854 43.5937L47.879 43.5518L47.9603 43.5103L48.0361 43.4625L48.1119 43.4149L48.1818 43.3611L48.2461 43.3072L48.2987 43.2535L48.3571 43.1938L48.4034 43.1341L48.4501 43.0743L48.4911 43.0089L48.5261 42.9433L48.555 42.8779L48.5841 42.8123L48.6072 42.7469L48.6306 42.6752L48.6482 42.6096L48.6597 42.5379L48.6773 42.4007L48.6832 42.2585ZM54.396 40.5943V40.493L54.3841 40.3916L54.361 40.29L54.3317 40.1887L54.3087 40.1349L54.2854 40.0873L54.262 40.0397L54.2329 39.9919L54.1979 39.9382L54.1627 39.8963L54.1221 39.8487L54.0752 39.807L54.0289 39.7592L53.9761 39.7234L53.9236 39.6815L53.8653 39.6456L53.8013 39.61L53.7313 39.5742L53.6553 39.5444L53.5795 39.5205L53.4978 39.4909L53.4107 39.4731L53.3171 39.4551L53.218 39.4369L53.1133 39.4251L53.0023 39.4132L52.8915 39.4071H50.7408L50.1638 42.1332H52.4256L52.5713 42.1273L52.7114 42.1152L52.8394 42.0973L52.9676 42.0795L53.0842 42.0556L53.195 42.0319L53.306 42.0022L53.405 41.9661L53.4984 41.9305L53.5918 41.8886L53.6733 41.8469L53.7493 41.7993L53.8251 41.7517L53.8949 41.6978L53.959 41.6442L54.0172 41.5905L54.0699 41.5308L54.1164 41.4713L54.1629 41.4057L54.2038 41.3461L54.2389 41.2803L54.2737 41.2147L54.297 41.1491L54.3263 41.0839L54.3437 41.0122L54.3612 40.9466L54.3728 40.8751L54.3902 40.7318L54.396 40.5943ZM53.6088 44.871V44.7695L53.5969 44.6679L53.5736 44.5667L53.5387 44.4652L53.4978 44.364L53.4394 44.2625L53.4105 44.2149L53.3753 44.1674L53.3343 44.1254L53.288 44.0781L53.2413 44.0363L53.1891 43.994L53.1364 43.958L53.0723 43.9223L53.0084 43.8865L52.9441 43.8507L52.8683 43.8207L52.7925 43.7968L52.7052 43.7672L52.618 43.7494L52.5246 43.7316L52.4314 43.7136L52.3265 43.7014L52.2157 43.6895L52.0991 43.6834H49.954L49.3768 46.4097H51.6384L51.7839 46.4038L51.9238 46.3919L52.0582 46.3736L52.1803 46.3558L52.297 46.3321L52.4138 46.3082L52.5184 46.2785L52.6176 46.2424L52.711 46.2068L52.8042 46.1649L52.8857 46.1175L52.9674 46.0756L53.0373 46.0219L53.1073 45.9743L53.1715 45.9205L53.2298 45.8609L53.2823 45.8071L53.3288 45.7473L53.3753 45.6819L53.4162 45.6222L53.4515 45.5568L53.4804 45.491L53.5097 45.4256L53.5326 45.3539L53.556 45.2883L53.5734 45.2168L53.5854 45.151L53.5969 45.0793L53.6029 45.0079L53.6084 44.9362V44.871H53.6088ZM47.8964 46.535V46.4336L47.8843 46.3323L47.8614 46.2309L47.8323 46.1294L47.7858 46.0282L47.7332 45.9265L47.6981 45.8792L47.6633 45.8314L47.6223 45.7895L47.5758 45.7423L47.5291 45.7004L47.4767 45.6587L47.4243 45.6228L47.3661 45.5809L47.302 45.5513L47.2319 45.5157L47.1561 45.4857L47.0803 45.4562L46.9986 45.4321L46.9113 45.4084L46.8181 45.3904L46.719 45.3786L46.6141 45.3606L46.5094 45.3545L46.3929 45.3487H44.2421L43.6644 48.0741H45.9322L46.0719 48.068L46.212 48.0561L46.3458 48.0383L46.4685 48.0202L46.5848 47.9966L46.7016 47.9666L46.8065 47.937L46.9056 47.9075L47.0047 47.8655L47.0918 47.8297L47.1735 47.7821L47.2551 47.7404L47.3251 47.6863L47.3952 47.6392L47.4591 47.5851L47.5175 47.5256L47.5699 47.4719L47.6166 47.4122L47.6631 47.3464L47.7037 47.2866L47.7389 47.2212L47.7739 47.1556L47.7973 47.0904L47.8262 47.0188L47.8436 46.9531L47.8614 46.8815L47.8731 46.8159L47.8847 46.7442L47.8907 46.6725L47.8966 46.6069V46.535H47.8964Z" fill="black"/>
</svg>
