
<svg width="128" height="129" viewBox="0 0 128 129" fill="none" xmlns="http://www.w3.org/2000/svg">
    <g filter="url(#filter0_d_808_51379)">
    <rect x="14" y="10.9727" width="88" height="88" rx="44" fill="url(#paint0_linear_808_51379)"/>
    </g>
    <circle cx="74.3047" cy="37.0727" r="2.58835" fill="#2DA4FE"/>
    <circle cx="41.6972" cy="72.8012" r="2.58835" fill="#2DA4FE"/>
    <g clip-path="url(#clip0_808_51379)">
    <path d="M75.1258 56.4083L81.3922 51.8999C83.329 50.5065 83.771 47.7973 82.3776 45.8606L76.762 38.0554C75.3687 36.1187 72.6594 35.6766 70.7226 37.07L64.4563 41.5784C62.9998 39.965 60.5247 39.6689 58.7199 40.9674L37.2556 56.4101C34.0277 58.7324 33.291 63.2478 35.6134 66.4756L42.352 75.8419C44.6743 79.0698 49.1897 79.8065 52.4176 77.4841L73.8819 62.0414C75.6867 60.743 76.1927 58.3022 75.1258 56.4083ZM72.4073 39.4116C73.0529 38.9472 73.9559 39.0945 74.4204 39.7401L80.036 47.5453C80.5005 48.1909 80.3531 49.0939 79.7076 49.5584L73.4634 54.0508L66.1632 43.9041L72.4073 39.4116ZM50.733 75.1427C48.7963 76.5361 46.087 76.0941 44.6936 74.1573L37.9549 64.7911C36.5616 62.8544 37.0035 60.1451 38.9403 58.7517L60.4046 43.309C61.0502 42.8445 61.9532 42.9918 62.4177 43.6374L72.5257 57.6868C72.9901 58.3324 72.8428 59.2354 72.1972 59.6999L50.7329 75.1426L50.733 75.1427Z" fill="white"/>
    <path d="M73.7876 42.5653C73.3224 41.9187 72.4211 41.7717 71.7746 42.2369L70.2135 43.3599C69.5669 43.8252 69.4199 44.7265 69.8851 45.373C70.3503 46.0196 71.2516 46.1666 71.8982 45.7015L73.4591 44.5784C74.1057 44.1132 74.2528 43.2118 73.7876 42.5653Z" fill="white"/>
    <path d="M77.1568 47.2479C76.6916 46.6013 75.7902 46.4543 75.1437 46.9195L73.5827 48.0426C72.9361 48.5078 72.7891 49.4091 73.2542 50.0556C73.7194 50.7022 74.6208 50.8492 75.2673 50.3841L76.8283 49.2611C77.4749 48.7959 77.622 47.8945 77.1568 47.2479Z" fill="white"/>
    <path d="M65.4013 58.0747C64.9361 57.4281 64.0347 57.2811 63.3882 57.7462L60.8253 59.5902L58.4407 58.9367L63.8261 55.0621C64.4727 54.5969 64.6197 53.6956 64.1546 53.049C63.6893 52.4024 62.788 52.2554 62.1415 52.7206L56.0747 57.0854L55.5698 55.0796L57.1158 53.9674C57.7624 53.5022 57.9094 52.6008 57.4442 51.9543C56.979 51.3078 56.0776 51.1605 55.431 51.6257L53.0895 53.3103C52.6093 53.6558 52.3887 54.2595 52.5332 54.8331L53.5561 58.8973L48.9987 62.1762C47.8961 61.5701 46.4955 61.6081 45.4079 62.3906C43.9016 63.4743 43.5578 65.5815 44.6416 67.0879C45.7254 68.5943 47.8325 68.9381 49.3389 67.8543C50.4265 67.0718 50.9076 65.756 50.6835 64.5179L55.4303 61.1027L60.7274 62.5544C61.1475 62.6696 61.5972 62.5886 61.9508 62.3342L65.0729 60.0879C65.7194 59.6226 65.8664 58.7212 65.4013 58.0747Z" fill="white"/>
    </g>
    <defs>
    <filter id="filter0_d_808_51379" x="0" y="0.972656" width="128" height="128" filterUnits="userSpaceOnUse" color-interpolation-filters="sRGB">
    <feFlood flood-opacity="0" result="BackgroundImageFix"/>
    <feColorMatrix in="SourceAlpha" type="matrix" values="0 0 0 0 0 0 0 0 0 0 0 0 0 0 0 0 0 0 127 0" result="hardAlpha"/>
    <feOffset dx="6" dy="10"/>
    <feGaussianBlur stdDeviation="10"/>
    <feComposite in2="hardAlpha" operator="out"/>
    <feColorMatrix type="matrix" values="0 0 0 0 0.152941 0 0 0 0 0.643137 0 0 0 0 0.388235 0 0 0 0.25 0"/>
    <feBlend mode="normal" in2="BackgroundImageFix" result="effect1_dropShadow_808_51379"/>
    <feBlend mode="normal" in="SourceGraphic" in2="effect1_dropShadow_808_51379" result="shape"/>
    </filter>
    <linearGradient id="paint0_linear_808_51379" x1="114.32" y1="108.663" x2="8.26201" y2="2.04956" gradientUnits="userSpaceOnUse">
    <stop stop-color="#0A8926"/>
    <stop offset="1" stop-color="#72EBFF"/>
    </linearGradient>
    <clipPath id="clip0_808_51379">
    <rect width="50" height="50" fill="white" transform="translate(34.2764 31.5586)"/>
    </clipPath>
    </defs>
</svg> 