<svg width="128" height="129" viewBox="0 0 128 129" fill="none" xmlns="http://www.w3.org/2000/svg">
    <g filter="url(#filter0_d_808_51351)">
    <rect x="14" y="10.9727" width="88" height="88" rx="44" fill="url(#paint0_linear_808_51351)"/>
    </g>
    <g clip-path="url(#clip0_808_51351)">
    <path d="M50.5161 35.2852H51.1021C51.5065 35.2852 51.8345 34.9573 51.8345 34.5527C51.8345 34.1481 51.5065 33.8203 51.1021 33.8203H50.5161C50.1116 33.8203 49.7837 34.1481 49.7837 34.5527C49.7837 34.9573 50.1116 35.2852 50.5161 35.2852Z" fill="white"/>
    <path d="M57.7568 35.2852H58.7307C59.1353 35.2852 59.4631 34.9573 59.4631 34.5527C59.4631 34.1481 59.1353 33.8203 58.7307 33.8203H57.7568C57.3523 33.8203 57.0244 34.1481 57.0244 34.5527C57.0244 34.9573 57.3523 35.2852 57.7568 35.2852Z" fill="white"/>
    <path d="M53.9424 35.2852H54.9162C55.3207 35.2852 55.6486 34.9573 55.6486 34.5527C55.6486 34.1481 55.3207 33.8203 54.9162 33.8203H53.9424C53.5379 33.8203 53.21 34.1481 53.21 34.5527C53.21 34.9573 53.5379 35.2852 53.9424 35.2852Z" fill="white"/>
    <path d="M61.5708 35.2852H62.1567C62.5613 35.2852 62.8892 34.9573 62.8892 34.5527C62.8892 34.1481 62.5613 33.8203 62.1567 33.8203H61.5708C61.1662 33.8203 60.8384 34.1481 60.8384 34.5527C60.8384 34.9573 61.1663 35.2852 61.5708 35.2852Z" fill="white"/>
    <path d="M61.5708 38.4414H62.1567C62.5613 38.4414 62.8892 38.1136 62.8892 37.709C62.8892 37.3044 62.5613 36.9766 62.1567 36.9766H61.5708C61.1662 36.9766 60.8384 37.3044 60.8384 37.709C60.8384 38.1136 61.1663 38.4414 61.5708 38.4414Z" fill="white"/>
    <path d="M57.7568 38.4414H58.7307C59.1353 38.4414 59.4631 38.1136 59.4631 37.709C59.4631 37.3044 59.1353 36.9766 58.7307 36.9766H57.7568C57.3523 36.9766 57.0244 37.3044 57.0244 37.709C57.0244 38.1136 57.3523 38.4414 57.7568 38.4414Z" fill="white"/>
    <path d="M53.9424 38.4414H54.9162C55.3207 38.4414 55.6486 38.1136 55.6486 37.709C55.6486 37.3044 55.3207 36.9766 54.9162 36.9766H53.9424C53.5379 36.9766 53.21 37.3044 53.21 37.709C53.21 38.1136 53.5379 38.4414 53.9424 38.4414Z" fill="white"/>
    <path d="M50.5161 38.4414H51.1021C51.5065 38.4414 51.8345 38.1136 51.8345 37.709C51.8345 37.3044 51.5065 36.9766 51.1021 36.9766H50.5161C50.1116 36.9766 49.7837 37.3044 49.7837 37.709C49.7837 38.1136 50.1116 38.4414 50.5161 38.4414Z" fill="white"/>
    <path d="M37.1567 36.1311C37.1567 37.4053 38.1934 38.4419 39.4676 38.4419C40.7418 38.4419 41.7783 37.4052 41.7783 36.1311C41.7783 34.8569 40.7417 33.8203 39.4675 33.8203C38.1933 33.8203 37.1567 34.8569 37.1567 36.1311ZM39.4676 35.2851C39.934 35.2851 40.3136 35.6646 40.3136 36.131C40.3136 36.5974 39.9341 36.977 39.4676 36.977C39.0011 36.977 38.6216 36.5974 38.6216 36.131C38.6216 35.6646 39.0011 35.2851 39.4676 35.2851Z" fill="white"/>
    <path d="M48.0918 36.1311C48.0918 34.8569 47.0552 33.8203 45.781 33.8203C44.5067 33.8203 43.4702 34.8569 43.4702 36.1311C43.4702 37.4053 44.5068 38.4419 45.7811 38.4419C47.0553 38.4419 48.0918 37.4052 48.0918 36.1311ZM44.9351 36.1311C44.9351 35.6646 45.3146 35.2852 45.7811 35.2852C46.2476 35.2852 46.6271 35.6646 46.6271 36.1311C46.6271 36.5975 46.2476 36.9771 45.7811 36.9771C45.3146 36.9771 44.9351 36.5975 44.9351 36.1311Z" fill="white"/>
    <path d="M39.4676 52.4497C40.7417 52.4497 41.7784 51.4131 41.7784 50.1389C41.7784 48.8647 40.7418 47.8281 39.4676 47.8281C38.1934 47.8281 37.1567 48.8647 37.1567 50.1389C37.1567 51.4131 38.1934 52.4497 39.4676 52.4497ZM39.4676 49.293C39.934 49.293 40.3136 49.6725 40.3136 50.1389C40.3136 50.6053 39.9341 50.9849 39.4676 50.9849C39.0011 50.9849 38.6216 50.6053 38.6216 50.1389C38.6216 49.6725 39.0011 49.293 39.4676 49.293Z" fill="white"/>
    <path d="M45.7811 52.4497C47.0552 52.4497 48.0919 51.4131 48.0919 50.1389C48.0919 48.8647 47.0553 47.8281 45.7811 47.8281C44.5068 47.8281 43.4702 48.8647 43.4702 50.1389C43.4703 51.4131 44.5069 52.4497 45.7811 52.4497ZM45.7811 49.293C46.2475 49.293 46.6271 49.6725 46.6271 50.1389C46.6271 50.6053 46.2476 50.9849 45.7811 50.9849C45.3146 50.9849 44.9351 50.6053 44.9351 50.1389C44.9351 49.6725 45.3147 49.293 45.7811 49.293Z" fill="white"/>
    <path d="M39.4676 61.8359C38.1935 61.8359 37.1567 62.8726 37.1567 64.1468C37.1567 65.4209 38.1934 66.4575 39.4676 66.4575C40.7418 66.4575 41.7784 65.4209 41.7784 64.1468C41.7783 62.8726 40.7417 61.8359 39.4676 61.8359ZM39.4676 64.9927C39.0012 64.9927 38.6216 64.6132 38.6216 64.1468C38.6216 63.6804 39.0011 63.3008 39.4676 63.3008C39.9341 63.3008 40.3136 63.6804 40.3136 64.1468C40.3136 64.6132 39.934 64.9927 39.4676 64.9927Z" fill="white"/>
    <path d="M45.7811 61.8359C44.5069 61.8359 43.4702 62.8726 43.4702 64.1468C43.4702 65.4209 44.5068 66.4575 45.7811 66.4575C47.0553 66.4575 48.0919 65.4209 48.0919 64.1468C48.0919 62.8726 47.0553 61.8359 45.7811 61.8359ZM45.7811 64.9927C45.3147 64.9927 44.9351 64.6132 44.9351 64.1468C44.9351 63.6804 45.3146 63.3008 45.7811 63.3008C46.2476 63.3008 46.6271 63.6804 46.6271 64.1468C46.6271 64.6132 46.2476 64.9927 45.7811 64.9927Z" fill="white"/>
    <path d="M82.2811 49.8997H82.0273V48.4619C82.0273 47.5143 81.2562 46.7432 80.3086 46.7432H78.6182C78.2136 46.7432 77.8857 47.071 77.8857 47.4756C77.8857 47.8802 78.2136 48.208 78.6182 48.208H80.3086C80.4486 48.208 80.5625 48.3219 80.5625 48.4619V49.8997H66.4438L65.9149 48.2081H75.2002C75.6048 48.2081 75.9326 47.8803 75.9326 47.4757C75.9326 47.0711 75.6048 46.7433 75.2002 46.7433H66.0459V46.2916C66.0459 45.0982 65.1364 44.1133 63.9742 43.9932V42.2768C65.1364 42.1568 66.0459 41.1719 66.0459 39.9785V32.2832C66.0459 31.0092 65.0094 29.9727 63.7354 29.9727H42.0244C41.6199 29.9727 41.292 30.3005 41.292 30.7051C41.292 31.1097 41.6199 31.4375 42.0244 31.4375H63.7354C64.2017 31.4375 64.5811 31.8169 64.5811 32.2832V39.9785C64.5811 40.4448 64.2017 40.8242 63.7354 40.8242H36.3105C35.8442 40.8242 35.4648 40.4448 35.4648 39.9785V32.2832C35.4648 31.8169 35.8442 31.4375 36.3105 31.4375H38.6064C39.0109 31.4375 39.3389 31.1097 39.3389 30.7051C39.3389 30.3005 39.0109 29.9727 38.6064 29.9727H36.3105C35.0365 29.9727 34 31.0092 34 32.2832V39.9785C34 41.1719 34.9094 42.1567 36.0716 42.2768V43.9932C34.9095 44.1133 34 45.0981 34 46.2915V53.9861C34 55.1795 34.9095 56.1645 36.0716 56.2845V58.0012C34.9095 58.1213 34 59.1063 34 60.2997V67.9943C34 69.2685 35.0366 70.3051 36.3108 70.3051H49.5904C49.5882 70.3896 49.5869 70.4745 49.5869 70.5596C49.5869 71.115 49.6354 71.6688 49.7312 72.2057C49.8022 72.6039 50.1826 72.8692 50.5808 72.7981C50.9789 72.7271 51.2442 72.3468 51.1732 71.9485C51.0926 71.4964 51.0518 71.029 51.0518 70.5595C51.0518 66.1762 54.6173 62.6103 59 62.6103C63.3826 62.6103 66.9482 66.1763 66.9482 70.5595C66.9482 74.9421 63.3826 78.5077 59 78.5077C56.2798 78.5077 53.7776 77.1394 52.3068 74.8476C52.0884 74.5071 51.6353 74.4083 51.2948 74.6268C50.9544 74.8451 50.8555 75.2982 51.074 75.6387C52.8156 78.3525 55.7786 79.9727 59 79.9727C64.1903 79.9727 68.4131 75.75 68.4131 70.5596C68.4131 70.4744 68.4118 70.3896 68.4096 70.3051H82.2812C83.2289 70.3051 84.0001 69.534 84.0001 68.5861V51.6186C84 50.6708 83.2289 49.8997 82.2811 49.8997ZM37.5364 43.9808V42.2891H62.5094V43.9808H37.5364ZM35.4648 53.9861V46.2915C35.4648 45.8251 35.8443 45.4456 36.3108 45.4456H63.7353C64.2017 45.4456 64.5812 45.8251 64.5812 46.2915V46.7432L57.7521 46.7429C56.9954 46.7429 56.3361 47.2281 56.112 47.9493L55.5022 49.8997H55.0541C54.1062 49.8997 53.3352 50.6708 53.3352 51.6187V54.8321H36.3108C35.8443 54.8321 35.4648 54.4526 35.4648 53.9861ZM53.3352 56.297V57.9889H37.5364V56.297H53.3352ZM49.7447 68.8402H36.3108C35.8444 68.8402 35.4648 68.4607 35.4648 67.9943V60.2997C35.4648 59.8333 35.8443 59.4537 36.3108 59.4537H53.3352V63.0462C51.4957 64.4367 50.181 66.4861 49.7447 68.8402ZM82.5352 68.5861C82.5352 68.7263 82.4212 68.8402 82.2811 68.8402H68.2552C67.4449 64.4676 63.6033 61.1455 59 61.1455C57.4915 61.1455 56.065 61.5028 54.8 62.1363V51.6186C54.8 51.4784 54.914 51.3645 55.0541 51.3645H56.0406C56.3609 51.3645 56.6441 51.1562 56.7396 50.8506L57.5104 48.3853C57.5435 48.279 57.6406 48.2077 57.7522 48.2077H64.1244L64.1301 48.208H64.1977C64.3076 48.2096 64.4031 48.2803 64.4361 48.3864L65.2065 50.8506C65.3021 51.1562 65.5853 51.3645 65.9056 51.3645H82.2813C82.4215 51.3645 82.5354 51.4784 82.5354 51.6186L82.5352 68.5861Z" fill="white"/>
    <path d="M59 74.5624C58.5955 74.5624 58.2676 74.8903 58.2676 75.2949C58.2676 75.6995 58.5955 76.0273 59 76.0273C61.0743 76.0273 62.8558 74.7525 63.6041 72.9456C63.746 73.1433 63.9695 73.2518 64.1986 73.2518C64.3345 73.2518 64.4719 73.214 64.5946 73.1351C64.9347 72.9161 65.0327 72.4627 64.8138 72.1227L63.8647 70.6493C63.6457 70.3093 63.1926 70.2113 62.8523 70.4301L61.3789 71.3791C61.0389 71.5982 60.9408 72.0515 61.1598 72.3916C61.3717 72.7203 61.802 72.822 62.1378 72.6305C61.5572 73.7753 60.3691 74.5624 59 74.5624Z" fill="white"/>
    <path d="M58.9999 65.0918C56.9258 65.0918 55.1444 66.3663 54.396 68.1729C54.1699 67.8579 53.7348 67.7718 53.4053 67.9839C53.0652 68.2029 52.9671 68.6562 53.186 68.9962L54.135 70.4697C54.2402 70.6331 54.4059 70.7479 54.5959 70.7891C54.6472 70.8002 54.6991 70.8057 54.7509 70.8057C54.8904 70.8057 55.0283 70.7657 55.1475 70.6891L56.621 69.7399C56.961 69.5209 57.0592 69.0676 56.8401 68.7275C56.6282 68.3987 56.1977 68.2971 55.8621 68.4886C56.4427 67.3437 57.6307 66.5566 58.9999 66.5566C59.4045 66.5566 59.7323 66.2288 59.7323 65.8242C59.7323 65.4196 59.4045 65.0918 58.9999 65.0918Z" fill="white"/>
    </g>
    <defs>
    <filter id="filter0_d_808_51351" x="0" y="0.972656" width="128" height="128" filterUnits="userSpaceOnUse" color-interpolation-filters="sRGB">
    <feFlood flood-opacity="0" result="BackgroundImageFix"/>
    <feColorMatrix in="SourceAlpha" type="matrix" values="0 0 0 0 0 0 0 0 0 0 0 0 0 0 0 0 0 0 127 0" result="hardAlpha"/>
    <feOffset dx="6" dy="10"/>
    <feGaussianBlur stdDeviation="10"/>
    <feComposite in2="hardAlpha" operator="out"/>
    <feColorMatrix type="matrix" values="0 0 0 0 0.202178 0 0 0 0 0.1875 0 0 0 0 0.833333 0 0 0 0.25 0"/>
    <feBlend mode="normal" in2="BackgroundImageFix" result="effect1_dropShadow_808_51351"/>
    <feBlend mode="normal" in="SourceGraphic" in2="effect1_dropShadow_808_51351" result="shape"/>
    </filter>
    <linearGradient id="paint0_linear_808_51351" x1="114.32" y1="108.663" x2="8.26201" y2="2.04956" gradientUnits="userSpaceOnUse">
    <stop stop-color="#0031B0"/>
    <stop offset="1" stop-color="#BC5AEA"/>
    </linearGradient>
    <clipPath id="clip0_808_51351">
    <rect width="50" height="50" fill="white" transform="translate(34 29.9727)"/>
    </clipPath>
    </defs>
</svg>   