<svg width="129" height="129" viewBox="0 0 129 129" fill="none" xmlns="http://www.w3.org/2000/svg">
    <g filter="url(#filter0_d_808_51417)">
    <rect x="14.7681" y="10.9727" width="88" height="88" rx="44" fill="url(#paint0_linear_808_51417)"/>
    </g>
    <g clip-path="url(#clip0_808_51417)">
    <path d="M40.2993 68.7588H37.9556C37.7484 68.7588 37.5497 68.8411 37.4031 68.9876C37.2566 69.1341 37.1743 69.3328 37.1743 69.54C37.1743 69.7472 37.2566 69.946 37.4031 70.0925C37.5497 70.239 37.7484 70.3213 37.9556 70.3213H40.2993C40.5065 70.3213 40.7052 70.239 40.8517 70.0925C40.9983 69.946 41.0806 69.7472 41.0806 69.54C41.0806 69.3328 40.9983 69.1341 40.8517 68.9876C40.7052 68.8411 40.5065 68.7588 40.2993 68.7588Z" fill="white"/>
    <path d="M43.4243 68.7588H42.6431C42.4359 68.7588 42.2372 68.8411 42.0906 68.9876C41.9441 69.1341 41.8618 69.3328 41.8618 69.54C41.8618 69.7472 41.9441 69.946 42.0906 70.0925C42.2372 70.239 42.4359 70.3213 42.6431 70.3213H43.4243C43.6315 70.3213 43.8302 70.239 43.9767 70.0925C44.1233 69.946 44.2056 69.7472 44.2056 69.54C44.2056 69.3328 44.1233 69.1341 43.9767 68.9876C43.8302 68.8411 43.6315 68.7588 43.4243 68.7588Z" fill="white"/>
    <path d="M80.1431 46.1025H78.5806V39.8525C78.5795 39.0241 78.2499 38.2298 77.6641 37.644C77.0783 37.0582 76.284 36.7286 75.4556 36.7275H42.6431C41.8146 36.7285 41.0202 37.058 40.4344 37.6439C39.8485 38.2297 39.519 39.024 39.5181 39.8525V53.915H37.9556C37.1271 53.916 36.3327 54.2455 35.7469 54.8314C35.161 55.4172 34.8315 56.2115 34.8306 57.04V69.54C34.8315 70.3686 35.161 71.1629 35.7469 71.7487C36.3327 72.3346 37.1271 72.6641 37.9556 72.665H45.7681C46.5965 72.664 47.3908 72.3344 47.9766 71.7486C48.5624 71.1627 48.892 70.3685 48.8931 69.54V67.1963H55.7046L55.314 68.7588H52.7993C52.5921 68.7588 52.3934 68.8411 52.2469 68.9876C52.1004 69.1341 52.0181 69.3328 52.0181 69.54V71.8838C52.0181 72.091 52.1004 72.2897 52.2469 72.4362C52.3934 72.5827 52.5921 72.665 52.7993 72.665H80.1431C80.9715 72.664 81.7658 72.3344 82.3516 71.7486C82.9374 71.1627 83.267 70.3685 83.2681 69.54V49.2275C83.267 48.3991 82.9374 47.6048 82.3516 47.019C81.7658 46.4332 80.9715 46.1036 80.1431 46.1025ZM47.3306 69.54C47.33 69.9543 47.1652 70.3514 46.8723 70.6443C46.5794 70.9372 46.1823 71.102 45.7681 71.1025H37.9556C37.5413 71.102 37.1442 70.9372 36.8513 70.6443C36.5584 70.3514 36.3936 69.9543 36.3931 69.54V57.04C36.3936 56.6258 36.5584 56.2287 36.8513 55.9358C37.1442 55.6429 37.5413 55.4781 37.9556 55.4775H38.9546L39.5581 57.2871C39.61 57.4427 39.7095 57.578 39.8425 57.6738C39.9755 57.7697 40.1353 57.8213 40.2993 57.8213H43.4243C43.5883 57.8213 43.7481 57.7697 43.8811 57.6738C44.0142 57.578 44.1137 57.4427 44.1655 57.2871L44.769 55.4775H45.7681C46.1823 55.4781 46.5794 55.6429 46.8723 55.9358C47.1652 56.2287 47.33 56.6258 47.3306 57.04V69.54ZM40.6021 55.4775H43.1216L42.8608 56.2588H40.8628L40.6021 55.4775ZM48.8931 65.6338V63.29H62.9556V65.6338H48.8931ZM62.9556 67.1963V68.7588H62.7847L62.394 67.1963H62.9556ZM61.1733 68.7588H56.9253L57.3159 67.1963H60.7827L61.1733 68.7588ZM53.5806 71.1025V70.3213H63.0542C63.1257 70.5951 63.2341 70.8579 63.3765 71.1025H53.5806ZM62.9556 49.2275V61.7275H48.8931V57.04C48.892 56.2116 48.5624 55.4173 47.9766 54.8315C47.3908 54.2457 46.5965 53.9161 45.7681 53.915H41.0806V39.8525C41.0811 39.4383 41.2459 39.0412 41.5388 38.7483C41.8317 38.4554 42.2288 38.2906 42.6431 38.29H75.4556C75.8698 38.2906 76.2669 38.4554 76.5598 38.7483C76.8527 39.0412 77.0175 39.4383 77.0181 39.8525V46.1025H66.0806C65.2521 46.1036 64.4579 46.4332 63.8721 47.019C63.2862 47.6048 62.9567 48.3991 62.9556 49.2275ZM81.7056 69.54C81.705 69.9543 81.5402 70.3514 81.2473 70.6443C80.9544 70.9372 80.5573 71.102 80.1431 71.1025H66.0806C65.6663 71.102 65.2692 70.9372 64.9763 70.6443C64.6834 70.3514 64.5186 69.9543 64.5181 69.54V49.2275C64.5186 48.8133 64.6834 48.4162 64.9763 48.1233C65.2692 47.8304 65.6663 47.6656 66.0806 47.665H80.1431C80.5573 47.6656 80.9544 47.8304 81.2473 48.1233C81.5402 48.4162 81.705 48.8133 81.7056 49.2275V69.54Z" fill="white"/>
    <path d="M80.1431 48.4463H66.0806C65.8734 48.4463 65.6747 48.5286 65.5281 48.6751C65.3816 48.8216 65.2993 49.0203 65.2993 49.2275V67.1963C65.2993 67.4035 65.3816 67.6022 65.5281 67.7487C65.6747 67.8952 65.8734 67.9775 66.0806 67.9775H80.1431C80.3503 67.9775 80.549 67.8952 80.6955 67.7487C80.842 67.6022 80.9243 67.4035 80.9243 67.1963V49.2275C80.9243 49.0203 80.842 48.8216 80.6955 48.6751C80.549 48.5286 80.3503 48.4463 80.1431 48.4463ZM79.3618 66.415H66.8618V50.0088H79.3618V66.415Z" fill="white"/>
    <path d="M72.3306 70.3213C72.762 70.3213 73.1118 69.9715 73.1118 69.54C73.1118 69.1086 72.762 68.7588 72.3306 68.7588C71.8991 68.7588 71.5493 69.1086 71.5493 69.54C71.5493 69.9715 71.8991 70.3213 72.3306 70.3213Z" fill="white"/>
    <g clip-path="url(#clip1_808_51417)">
    <path d="M47.1084 40.9268C45.0302 40.9268 43.3486 42.6085 43.3486 44.6865C43.3486 46.7647 45.0303 48.4463 47.1084 48.4463C49.1866 48.4463 50.8682 46.7646 50.8682 44.6865C50.8682 42.6083 49.1864 40.9268 47.1084 40.9268ZM47.1084 47.8588C45.3549 47.8588 43.9361 46.4399 43.9361 44.6865C43.9361 42.933 45.355 41.5142 47.1084 41.5142C48.8619 41.5142 50.2807 42.9332 50.2807 44.6865C50.2807 46.44 48.8617 47.8588 47.1084 47.8588Z" fill="white"/>
    <path d="M47.1082 44.0742C46.946 44.0742 46.8145 44.2057 46.8145 44.368V46.2595C46.8145 46.4217 46.946 46.5532 47.1082 46.5532C47.2704 46.5532 47.4019 46.4217 47.4019 46.2595V44.368C47.4019 44.2057 47.2704 44.0742 47.1082 44.0742Z" fill="white"/>
    <path d="M47.1085 43.715C47.3275 43.715 47.505 43.5374 47.505 43.3184C47.505 43.0994 47.3275 42.9219 47.1085 42.9219C46.8895 42.9219 46.7119 43.0994 46.7119 43.3184C46.7119 43.5374 46.8895 43.715 47.1085 43.715Z" fill="white"/>
    </g>
    </g>
    <defs>
    <filter id="filter0_d_808_51417" x="0.768066" y="0.972656" width="128" height="128" filterUnits="userSpaceOnUse" color-interpolation-filters="sRGB">
    <feFlood flood-opacity="0" result="BackgroundImageFix"/>
    <feColorMatrix in="SourceAlpha" type="matrix" values="0 0 0 0 0 0 0 0 0 0 0 0 0 0 0 0 0 0 127 0" result="hardAlpha"/>
    <feOffset dx="6" dy="10"/>
    <feGaussianBlur stdDeviation="10"/>
    <feComposite in2="hardAlpha" operator="out"/>
    <feColorMatrix type="matrix" values="0 0 0 0 0.917647 0 0 0 0 0.294118 0 0 0 0 0.262745 0 0 0 0.25 0"/>
    <feBlend mode="normal" in2="BackgroundImageFix" result="effect1_dropShadow_808_51417"/>
    <feBlend mode="normal" in="SourceGraphic" in2="effect1_dropShadow_808_51417" result="shape"/>
    </filter>
    <linearGradient id="paint0_linear_808_51417" x1="10.291" y1="10.9727" x2="93.9224" y2="90.1071" gradientUnits="userSpaceOnUse">
    <stop stop-color="#EEC30B"/>
    <stop offset="1" stop-color="#EA4148"/>
    </linearGradient>
    <clipPath id="clip0_808_51417">
    <rect width="50" height="50" fill="white" transform="translate(34.0493 29.6963)"/>
    </clipPath>
    <clipPath id="clip1_808_51417">
    <rect width="7.51953" height="7.51953" fill="white" transform="translate(43.3486 40.9268)"/>
    </clipPath>
    </defs>
</svg>