<svg xmlns="http://www.w3.org/2000/svg" width="129" height="129" viewBox="0 0 129 129" fill="none">
<g filter="url(#filter0_d_808_51403)">
<path d="M14.7681 54.9727C14.7681 30.6721 34.4675 10.9727 58.7681 10.9727C83.0686 10.9727 102.768 30.6721 102.768 54.9727C102.768 79.2732 83.0686 98.9727 58.7681 98.9727C34.4675 98.9727 14.7681 79.2732 14.7681 54.9727Z" fill="url(#paint0_linear_808_51403)"/>
</g>
<path d="M81.2661 58.8789C81.4733 58.8789 81.672 58.7966 81.8185 58.6501C81.9651 58.5036 82.0474 58.3049 82.0474 58.0977V51.8477C82.0474 51.6405 81.9651 51.4417 81.8185 51.2952C81.672 51.1487 81.4733 51.0664 81.2661 51.0664H76.9435C76.4686 48.8259 75.5848 46.692 74.3364 44.7719L77.3895 41.7117C77.5358 41.5652 77.6179 41.3667 77.6179 41.1598C77.6179 40.9528 77.5358 40.7543 77.3895 40.6078L72.9755 36.1937C72.829 36.0475 72.6305 35.9654 72.4235 35.9654C72.2166 35.9654 72.0181 36.0475 71.8716 36.1937L68.8106 39.2461C66.8905 37.9977 64.7567 37.1139 62.5161 36.6391V32.3164C62.5161 32.1092 62.4338 31.9105 62.2873 31.764C62.1408 31.6175 61.9421 31.5352 61.7349 31.5352H55.4849C55.2777 31.5352 55.0789 31.6175 54.9324 31.764C54.7859 31.9105 54.7036 32.1092 54.7036 32.3164V36.6391C52.4631 37.1139 50.3293 37.9977 48.4091 39.2461L45.3489 36.193C45.2025 36.0467 45.0039 35.9646 44.797 35.9646C44.59 35.9646 44.3915 36.0467 44.245 36.193L39.831 40.607C39.6847 40.7535 39.6026 40.952 39.6026 41.159C39.6026 41.366 39.6847 41.5645 39.831 41.7109L42.8841 44.7711C41.6353 46.6914 40.7513 48.8255 40.2763 51.0664H35.9536C35.7464 51.0664 35.5477 51.1487 35.4012 51.2952C35.2547 51.4417 35.1724 51.6405 35.1724 51.8477V58.0977C35.1724 58.3049 35.2547 58.5036 35.4012 58.6501C35.5477 58.7966 35.7464 58.8789 35.9536 58.8789H40.2763C40.7511 61.1194 41.6349 63.2533 42.8833 65.1734L39.8302 68.2336C39.684 68.3801 39.6018 68.5786 39.6018 68.7855C39.6018 68.9925 39.684 69.191 39.8302 69.3375L44.2442 73.7516C44.3907 73.8978 44.5892 73.9799 44.7962 73.9799C45.0032 73.9799 45.2017 73.8978 45.3481 73.7516L48.4083 70.6984C50.3286 71.9472 52.4627 72.8312 54.7036 73.3062V77.6289C54.7036 77.8361 54.7859 78.0348 54.9324 78.1813C55.0789 78.3278 55.2777 78.4102 55.4849 78.4102H61.7349C61.9421 78.4102 62.1408 78.3278 62.2873 78.1813C62.4338 78.0348 62.5161 77.8361 62.5161 77.6289V73.3062C64.756 72.8295 66.8889 71.9444 68.8083 70.6953L75.1825 77.0695C75.9162 77.7968 76.9081 78.2038 77.9411 78.2016C78.9741 78.1993 79.9642 77.7879 80.6947 77.0575C81.4251 76.327 81.8365 75.3369 81.8388 74.3039C81.841 73.2708 81.434 72.279 80.7067 71.5453L74.3325 65.1711C75.5816 63.2517 76.4667 61.1188 76.9435 58.8789H81.2661ZM79.6021 75.9648C79.3844 76.1825 79.126 76.3552 78.8416 76.473C78.5573 76.5908 78.2524 76.6515 77.9446 76.6515C77.6368 76.6515 77.332 76.5908 77.0476 76.473C76.7632 76.3552 76.5048 76.1825 76.2872 75.9648L61.3278 61.0063C60.9645 60.6434 60.5329 60.356 60.058 60.1608C59.583 59.9656 59.0741 59.8663 58.5606 59.8687C58.3977 59.8687 58.2349 59.8783 58.0731 59.8977C57.0596 60.0194 56.0316 59.8908 55.0792 59.5231C54.1269 59.1554 53.2792 58.5598 52.6105 57.7885C51.9417 57.0171 51.4722 56.0936 51.2432 55.0988C51.0141 54.104 51.0325 53.0681 51.2966 52.082L54.7427 55.5289C54.8892 55.6754 55.0878 55.7578 55.295 55.7578H58.6099C58.8171 55.7578 59.0158 55.6755 59.1623 55.529C59.3088 55.3825 59.3911 55.1838 59.3911 54.9766V51.6578C59.3911 51.4506 59.3087 51.2519 59.1622 51.1055L55.7192 47.6594C56.7051 47.3959 57.7406 47.378 58.735 47.6073C59.7294 47.8367 60.6525 48.3062 61.4234 48.9749C62.1943 49.6436 62.7896 50.491 63.1571 51.4431C63.5247 52.3951 63.6533 53.4227 63.5317 54.4359C63.4564 55.027 63.5171 55.6276 63.7092 56.1916C63.9013 56.7557 64.2198 57.2684 64.6403 57.6906L79.6021 72.65C79.8197 72.8676 79.9924 73.126 80.1102 73.4104C80.228 73.6948 80.2887 73.9996 80.2887 74.3074C80.2887 74.6152 80.228 74.92 80.1102 75.2044C79.9924 75.4888 79.8197 75.7472 79.6021 75.9648ZM65.7481 56.5898C65.4954 56.3344 65.3045 56.0246 65.1899 55.684C65.0753 55.3435 65.0402 54.9812 65.0872 54.625C65.2546 53.2363 65.0459 51.8282 64.4828 50.5478C63.9198 49.2674 63.0231 48.1618 61.8865 47.3466C60.7499 46.5314 59.4151 46.0365 58.0218 45.9137C56.6285 45.7909 55.2278 46.0446 53.9661 46.6484C53.8535 46.7025 53.7555 46.7827 53.6803 46.8825C53.6052 46.9822 53.555 47.0985 53.534 47.2216C53.5131 47.3447 53.5219 47.4711 53.5598 47.5901C53.5978 47.709 53.6637 47.8172 53.7521 47.9055L57.8286 51.9812V54.1914H55.6185L51.5427 50.1148C51.4544 50.0265 51.3463 49.9606 51.2273 49.9226C51.1083 49.8847 50.9819 49.8759 50.8588 49.8968C50.7357 49.9178 50.6194 49.968 50.5197 50.0431C50.4199 50.1183 50.3397 50.2163 50.2856 50.3289C49.682 51.5902 49.4283 52.9905 49.5509 54.3834C49.6736 55.7763 50.1681 57.1107 50.9829 58.2472C51.7976 59.3836 52.9027 60.2803 54.1825 60.8436C55.4623 61.4069 56.87 61.616 58.2583 61.4492C58.6146 61.4024 58.9769 61.4377 59.3174 61.5524C59.658 61.667 59.9678 61.8581 60.2231 62.1109L64.2419 66.1289C61.587 67.4701 58.541 67.8213 55.6506 67.1194C52.7602 66.4176 50.2145 64.7086 48.4703 62.2992C46.7261 59.8898 45.8977 56.9377 46.1336 53.9727C46.3695 51.0076 47.6544 48.2237 49.7577 46.1204C51.8609 44.0172 54.6448 42.7323 57.6099 42.4964C60.5749 42.2605 63.527 43.0889 65.9364 44.8331C68.3458 46.5773 70.0548 49.123 70.7566 52.0134C71.4585 54.9038 71.1073 57.9498 69.7661 60.6047L65.7481 56.5898ZM75.5278 57.9695C75.1511 60.1258 74.3622 62.1892 73.2044 64.0469L70.92 61.7625C72.559 58.7925 73.0705 55.3306 72.3606 52.0135C71.6506 48.6964 69.7668 45.7472 67.0557 43.7083C64.3447 41.6693 60.9886 40.6778 57.6047 40.916C54.2209 41.1542 51.0368 42.6062 48.6382 45.0049C46.2395 47.4035 44.7875 50.5876 44.5493 53.9714C44.3111 57.3553 45.3026 60.7114 47.3416 63.4224C49.3805 66.1335 52.3297 68.0173 55.6468 68.7273C58.9639 69.4372 62.4258 68.9257 65.3958 67.2867L67.6802 69.5711C65.8225 70.7289 63.7591 71.5178 61.6028 71.8945C61.4219 71.9255 61.2577 72.0193 61.139 72.1593C61.0203 72.2993 60.9546 72.4766 60.9536 72.6602V76.8477H56.2661V72.6602C56.266 72.4759 56.2008 72.2977 56.082 72.1569C55.9632 72.0161 55.7985 71.9218 55.6169 71.8906C53.1524 71.4592 50.8133 70.4899 48.7661 69.0516C48.6157 68.9458 48.4327 68.8966 48.2495 68.9124C48.0663 68.9283 47.8946 69.0083 47.7646 69.1383L44.8021 72.0953L41.4911 68.7844L44.4481 65.8219C44.5782 65.6918 44.6581 65.5201 44.674 65.3369C44.6899 65.1537 44.6406 64.9708 44.5349 64.8203C43.096 62.772 42.1266 60.4315 41.6958 57.9656C41.6646 57.7834 41.5697 57.6181 41.4281 57.4993C41.2864 57.3804 41.1073 57.3156 40.9224 57.3164H36.7349V52.6289H40.9224C41.1066 52.6288 41.2848 52.5636 41.4257 52.4448C41.5665 52.326 41.6608 52.1613 41.6919 51.9797C42.1233 49.5152 43.0926 47.1761 44.531 45.1289C44.6367 44.9785 44.686 44.7955 44.6701 44.6123C44.6542 44.4291 44.5743 44.2574 44.4442 44.1273L41.4872 41.1648L44.7981 37.8539L47.7606 40.8109C47.8907 40.941 48.0624 41.0209 48.2456 41.0368C48.4288 41.0527 48.6118 41.0034 48.7622 40.8977C50.8106 39.4588 53.151 38.4894 55.6169 38.0586C55.7991 38.0273 55.9644 37.9325 56.0833 37.7909C56.2021 37.6492 56.2669 37.4701 56.2661 37.2852V33.0977H60.9536V37.2852C60.9537 37.4694 61.0189 37.6476 61.1377 37.7884C61.2565 37.9293 61.4213 38.0236 61.6028 38.0547C64.0687 38.4855 66.4092 39.4549 68.4575 40.8938C68.608 40.9995 68.7909 41.0487 68.9741 41.0329C69.1573 41.017 69.329 40.937 69.4591 40.807L72.4216 37.85L75.7325 41.1609L72.7755 44.1234C72.6455 44.2535 72.5655 44.4252 72.5496 44.6084C72.5338 44.7916 72.583 44.9745 72.6888 45.125C74.1276 47.1734 75.097 49.5138 75.5278 51.9797C75.559 52.1613 75.6533 52.326 75.7941 52.4448C75.9349 52.5636 76.1131 52.6288 76.2974 52.6289H80.4849V57.3164H76.2974C76.1131 57.3165 75.9349 57.3817 75.7941 57.5005C75.6533 57.6193 75.559 57.7841 75.5278 57.9656V57.9695Z" fill="white"/>
<path d="M63.5815 58.8401C63.5094 58.7655 63.4232 58.7059 63.3279 58.665C63.2326 58.624 63.1301 58.6025 63.0263 58.6016C62.9226 58.6007 62.8197 58.6205 62.7237 58.6597C62.6277 58.699 62.5405 58.757 62.4671 58.8304C62.3938 58.9037 62.3357 58.991 62.2965 59.087C62.2572 59.183 62.2374 59.2859 62.2383 59.3896C62.2392 59.4933 62.2608 59.5958 62.3017 59.6912C62.3427 59.7865 62.4022 59.8727 62.4768 59.9448L63.0291 60.4971C63.1765 60.6394 63.3738 60.7182 63.5787 60.7164C63.7835 60.7146 63.9794 60.6324 64.1243 60.4876C64.2691 60.3427 64.3513 60.1468 64.3531 59.9419C64.3549 59.7371 64.2761 59.5398 64.1338 59.3924L63.5815 58.8401Z" fill="white"/>
<path d="M74.6301 72.0981C74.7775 72.2404 74.9748 72.3191 75.1797 72.3174C75.3845 72.3156 75.5804 72.2334 75.7253 72.0886C75.8701 71.9437 75.9523 71.7478 75.9541 71.5429C75.9559 71.3381 75.8771 71.1407 75.7348 70.9934L66.3442 61.602C66.1976 61.4554 65.9988 61.373 65.7915 61.373C65.5841 61.373 65.3853 61.4554 65.2387 61.602C65.0921 61.7486 65.0098 61.9474 65.0098 62.1547C65.0098 62.362 65.0921 62.5609 65.2387 62.7075L74.6301 72.0981Z" fill="white"/>
<path d="M77.3929 74.8604C77.5403 75.0027 77.7376 75.0815 77.9424 75.0797C78.1473 75.0779 78.3432 74.9957 78.4881 74.8509C78.6329 74.706 78.7151 74.5101 78.7169 74.3052C78.7187 74.1004 78.6399 73.9031 78.4976 73.7557L77.9453 73.2026C77.7987 73.056 77.5998 72.9736 77.3925 72.9736C77.1852 72.9736 76.9864 73.056 76.8398 73.2026C76.6932 73.3492 76.6108 73.548 76.6108 73.7553C76.6108 73.9626 76.6932 74.1615 76.8398 74.3081L77.3929 74.8604Z" fill="white"/>
<defs>
<filter id="filter0_d_808_51403" x="0.768066" y="0.972656" width="128" height="128" filterUnits="userSpaceOnUse" color-interpolation-filters="sRGB">
<feFlood flood-opacity="0" result="BackgroundImageFix"/>
<feColorMatrix in="SourceAlpha" type="matrix" values="0 0 0 0 0 0 0 0 0 0 0 0 0 0 0 0 0 0 127 0" result="hardAlpha"/>
<feOffset dx="6" dy="10"/>
<feGaussianBlur stdDeviation="10"/>
<feComposite in2="hardAlpha" operator="out"/>
<feColorMatrix type="matrix" values="0 0 0 0 0.356863 0 0 0 0 0.113725 0 0 0 0 1 0 0 0 0.25 0"/>
<feBlend mode="normal" in2="BackgroundImageFix" result="effect1_dropShadow_808_51403"/>
<feBlend mode="normal" in="SourceGraphic" in2="effect1_dropShadow_808_51403" result="shape"/>
</filter>
<linearGradient id="paint0_linear_808_51403" x1="115.088" y1="108.663" x2="9.03007" y2="2.04956" gradientUnits="userSpaceOnUse">
<stop stop-color="#4200FF"/>
<stop offset="1" stop-color="#9360FF"/>
</linearGradient>
</defs>
</svg>