
                            <svg width="129" height="129" viewBox="0 0 129 129" fill="none" xmlns="http://www.w3.org/2000/svg">
                                <g filter="url(#filter0_d_808_51443)">
                                <rect x="14.7681" y="10.873" width="88" height="88" rx="44" fill="url(#paint0_linear_808_51443)"/>
                                </g>
                                <circle cx="75.0727" cy="36.9731" r="2.58835" fill="#2DA4FE"/>
                                <circle cx="42.4653" cy="72.7016" r="2.58835" fill="#2DA4FE"/>
                                <g clip-path="url(#clip0_808_51443)">
                                <path d="M78.7141 68.1673C81.8922 63.8891 83.6099 58.726 83.6099 53.2988C83.6099 46.6211 81.0095 40.3431 76.2876 35.6211C71.5656 30.8993 65.2876 28.2988 58.6099 28.2988V31.2285C64.5051 31.2285 70.0475 33.5242 74.2159 37.6928C78.3845 41.8613 80.6802 47.4036 80.6802 53.2988C80.6802 58.0608 79.1814 62.5921 76.4085 66.3555L76.0727 62.5167L73.1541 62.772L73.9201 71.5275L82.6758 70.7615L82.4205 67.843L78.7141 68.1673Z" fill="white"/>
                                <path d="M36.5396 53.299C36.5396 48.537 38.0383 44.0058 40.8112 40.2424L41.1471 44.0812L44.0656 43.8259L43.2996 35.0703L34.5439 35.8362L34.7992 38.7548L38.5056 38.4306C35.3275 42.7088 33.6099 47.8719 33.6099 53.299C33.6099 59.9768 36.2103 66.2548 40.9321 70.9768C45.6541 75.6985 51.9321 78.299 58.6099 78.299V75.3693C52.7146 75.3693 47.1723 73.0736 43.0038 68.9051C38.8353 64.7365 36.5396 59.1942 36.5396 53.299Z" fill="white"/>
                                <path d="M58.6099 57.791C61.0908 57.791 63.1021 55.7798 63.1021 53.2988C63.1021 50.8179 61.0908 48.8066 58.6099 48.8066C56.1289 48.8066 54.1177 50.8179 54.1177 53.2988C54.1177 55.7798 56.1289 57.791 58.6099 57.791Z" fill="white"/>
                                <path d="M72.1815 47.3489L69.3071 48.2829C68.6652 46.9195 67.7704 45.6979 66.6832 44.679L68.4625 42.23L66.0923 40.5079L64.3151 42.954C63.0286 42.2416 61.5962 41.7621 60.0747 41.5731V38.5527H57.145V41.5731C55.6235 41.7621 54.1911 42.2417 52.9046 42.954L51.1274 40.5079L48.7572 42.23L50.5365 44.679C49.4493 45.6979 48.5544 46.9194 47.9126 48.2829L45.0382 47.3489L44.1328 50.1352L47.0055 51.0686C46.8669 51.7911 46.7935 52.5365 46.7935 53.2988C46.7935 54.0611 46.8669 54.8065 47.0055 55.5291L44.1328 56.4625L45.0382 59.2487L47.9126 58.3147C48.5545 59.6781 49.4493 60.8997 50.5365 61.9187L48.7572 64.3677L51.1274 66.0897L52.9046 63.6437C54.1911 64.3561 55.6235 64.8355 57.145 65.0245V68.0449H60.0747V65.0245C61.5962 64.8355 63.0286 64.356 64.3151 63.6437L66.0923 66.0897L68.4625 64.3677L66.6832 61.9187C67.7704 60.8997 68.6653 59.6782 69.3071 58.3147L72.1815 59.2487L73.0869 56.4625L70.2143 55.5291C70.3528 54.8065 70.4263 54.0611 70.4263 53.2988C70.4263 52.5365 70.3528 51.7911 70.2143 51.0686L73.0869 50.1352L72.1815 47.3489ZM66.0317 53.2988C66.0317 57.3912 62.7023 60.7207 58.6099 60.7207C54.5174 60.7207 51.188 57.3912 51.188 53.2988C51.188 49.2064 54.5174 45.877 58.6099 45.877C62.7023 45.877 66.0317 49.2064 66.0317 53.2988Z" fill="white"/>
                                </g>
                                <defs>
                                <filter id="filter0_d_808_51443" x="0.768066" y="0.873047" width="128" height="128" filterUnits="userSpaceOnUse" color-interpolation-filters="sRGB">
                                <feFlood flood-opacity="0" result="BackgroundImageFix"/>
                                <feColorMatrix in="SourceAlpha" type="matrix" values="0 0 0 0 0 0 0 0 0 0 0 0 0 0 0 0 0 0 127 0" result="hardAlpha"/>
                                <feOffset dx="6" dy="10"/>
                                <feGaussianBlur stdDeviation="10"/>
                                <feComposite in2="hardAlpha" operator="out"/>
                                <feColorMatrix type="matrix" values="0 0 0 0 0.0862745 0 0 0 0 0.509804 0 0 0 0 0.996078 0 0 0 0.25 0"/>
                                <feBlend mode="normal" in2="BackgroundImageFix" result="effect1_dropShadow_808_51443"/>
                                <feBlend mode="normal" in="SourceGraphic" in2="effect1_dropShadow_808_51443" result="shape"/>
                                </filter>
                                <linearGradient id="paint0_linear_808_51443" x1="115.088" y1="108.564" x2="9.03007" y2="1.94995" gradientUnits="userSpaceOnUse">
                                <stop stop-color="#0061FF"/>
                                <stop offset="1" stop-color="#60EFFF"/>
                                </linearGradient>
                                <clipPath id="clip0_808_51443">
                                <rect width="50" height="50" fill="white" transform="translate(33.6099 28.2988)"/>
                                </clipPath>
                                </defs>
                            </svg>