<svg width="129" height="129" viewBox="0 0 129 129" fill="none" xmlns="http://www.w3.org/2000/svg">
<g filter="url(#filter0_d_808_51459)">
<rect x="14.7681" y="10.9727" width="88" height="88" rx="44" fill="url(#paint0_linear_808_51459)"/>
</g>
<g clip-path="url(#clip0_808_51459)">
<path d="M45.7764 73.0696C45.7637 73.0081 45.7451 72.9465 45.7207 72.887C45.6963 72.8284 45.666 72.7717 45.6309 72.719C45.5947 72.6653 45.5537 72.6155 45.5088 72.5706C45.4639 72.5256 45.4141 72.4845 45.3604 72.4485C45.3076 72.4133 45.251 72.384 45.1924 72.3596C45.1328 72.3352 45.0713 72.3157 45.0098 72.304C44.8838 72.2776 44.7539 72.2776 44.6279 72.304C44.5654 72.3157 44.5039 72.3352 44.4453 72.3596C44.3857 72.384 44.3291 72.4133 44.2764 72.4485C44.2227 72.4845 44.1729 72.5256 44.1279 72.5706C44.083 72.6155 44.042 72.6653 44.0068 72.719C43.9717 72.7717 43.9414 72.8284 43.917 72.887C43.8926 72.9465 43.874 73.0081 43.8613 73.0696C43.8486 73.1331 43.8418 73.1976 43.8418 73.261C43.8418 73.3245 43.8486 73.3889 43.8613 73.4514C43.874 73.5139 43.8926 73.5754 43.917 73.634C43.9414 73.6936 43.9717 73.7502 44.0068 73.8029C44.042 73.8567 44.083 73.9065 44.1279 73.9514C44.1729 73.9963 44.2227 74.0374 44.2764 74.0725C44.3291 74.1077 44.3857 74.138 44.4453 74.1624C44.5039 74.1868 44.5654 74.2063 44.6279 74.219C44.6904 74.2307 44.7549 74.2375 44.8184 74.2375C45.0752 74.2375 45.3271 74.133 45.5088 73.9514C45.5537 73.9065 45.5947 73.8567 45.6299 73.8029C45.665 73.7502 45.6953 73.6936 45.7197 73.634C45.7441 73.5755 45.7637 73.5139 45.7764 73.4514C45.7891 73.389 45.7949 73.3245 45.7949 73.261C45.7949 73.1975 45.7891 73.1331 45.7764 73.0696Z" fill="white"/>
<path d="M74.6012 49.0693H65.8774C65.3381 49.0693 64.9009 49.5066 64.9009 50.0459C64.9009 50.5853 65.3381 51.0225 65.8774 51.0225H74.6012C75.1405 51.0225 75.5777 50.5852 75.5777 50.0459C75.5777 49.5066 75.1405 49.0693 74.6012 49.0693Z" fill="white"/>
<path d="M86.2998 41.2847H71.6014V32.4609C71.6014 31.9217 71.1642 31.4844 70.6248 31.4844H42.4764C39.6091 31.4844 37.2764 33.8171 37.2764 36.6844V73.2605C37.2764 76.1278 39.6091 78.4605 42.4764 78.4605H70.6247C71.1641 78.4605 71.6013 78.0232 71.6013 77.484V65.9349H75.8242V67.6837C75.8242 68.047 76.0258 68.3802 76.3476 68.5486C76.6694 68.7173 77.0581 68.6934 77.3566 68.4865L78.9783 67.3638L80.6 68.4865C80.7664 68.6018 80.9607 68.6602 81.156 68.6602C81.311 68.6602 81.4666 68.6232 81.6091 68.5485C81.9308 68.38 82.1324 68.0468 82.1324 67.6836V65.9348H86.2998C86.8392 65.9348 87.2764 65.4975 87.2764 64.9582V42.2612C87.2764 41.7219 86.8392 41.2847 86.2998 41.2847ZM39.2295 36.6844C39.2295 34.894 40.686 33.4375 42.4764 33.4375H44.2969V63.1145C44.2969 63.6538 44.7341 64.091 45.2734 64.091C45.8128 64.091 46.25 63.6538 46.25 63.1145V33.4375H69.6482V41.2846H54.1788C53.6395 41.2846 53.2022 41.7219 53.2022 42.2611V64.9582C53.2022 65.4975 53.6395 65.9348 54.1788 65.9348H69.6482V68.0604H42.4764C41.2491 68.0604 40.1198 68.4878 39.2295 69.2016V36.6844ZM69.6482 76.5074H42.4764C40.686 76.5074 39.2295 75.0509 39.2295 73.2605C39.2295 71.4701 40.686 70.0136 42.4764 70.0136H69.6481V72.284H48.1106C47.5713 72.284 47.1341 72.7213 47.1341 73.2605C47.1341 73.7998 47.5713 74.2371 48.1106 74.2371H69.6482V76.5074ZM80.1794 65.8197L79.5344 65.3731C79.1999 65.1416 78.757 65.1416 78.4226 65.3731L77.7774 65.8197V62.0474C78.1623 62.1425 78.5645 62.193 78.9784 62.193C79.3923 62.193 79.7945 62.1425 80.1794 62.0474V65.8197ZM78.9785 60.2399C77.2949 60.2399 75.9252 58.8702 75.9252 57.1866C75.9252 55.503 77.2949 54.1333 78.9785 54.1333C80.6621 54.1333 82.0318 55.5029 82.0318 57.1866C82.0318 58.8702 80.6621 60.2399 78.9785 60.2399ZM64.2171 55.0793H74.4375C74.1464 55.7041 73.9806 56.3984 73.9724 57.1301H65.8774C65.3381 57.1301 64.9009 57.5673 64.9009 58.1066C64.9009 58.6459 65.3381 59.0832 65.8774 59.0832H74.3451C74.5636 59.615 74.8711 60.1012 75.249 60.5231H63.0339C62.6273 58.2355 60.8188 56.4271 58.5312 56.0205V51.1991C60.8188 50.7926 62.6273 48.984 63.0339 46.6965H77.6135C78.02 48.9841 79.8285 50.7926 82.1161 51.1991V53.2881C81.257 52.5953 80.1654 52.1802 78.9785 52.1802C77.8872 52.1802 76.8765 52.5312 76.0529 53.1262H64.2171C63.6777 53.1262 63.2405 53.5635 63.2405 54.1027C63.2405 54.642 63.6777 55.0793 64.2171 55.0793ZM85.3232 63.9817H82.1326V61.0718C83.2317 60.1777 83.9457 58.8276 83.9833 57.3126C84.0386 57.1901 84.0693 57.0543 84.0693 56.9113V50.3084C84.0693 49.769 83.6321 49.3318 83.0928 49.3318C81.1012 49.3318 79.481 47.7115 79.481 45.72C79.481 45.1807 79.0437 44.7435 78.5044 44.7435H62.1432C61.6038 44.7435 61.1666 45.1807 61.1666 45.72C61.1666 47.7116 59.5463 49.3318 57.5548 49.3318C57.0154 49.3318 56.5782 49.769 56.5782 50.3084V56.9113C56.5782 57.4507 57.0154 57.8879 57.5548 57.8879C59.5463 57.8879 61.1666 59.5082 61.1666 61.4997C61.1666 62.039 61.6038 62.4763 62.1432 62.4763H75.8243V63.9817H55.1554V43.2378H85.3232V63.9817Z" fill="white"/>
</g>
<defs>
<filter id="filter0_d_808_51459" x="0.768066" y="0.972656" width="128" height="128" filterUnits="userSpaceOnUse" color-interpolation-filters="sRGB">
<feFlood flood-opacity="0" result="BackgroundImageFix"/>
<feColorMatrix in="SourceAlpha" type="matrix" values="0 0 0 0 0 0 0 0 0 0 0 0 0 0 0 0 0 0 127 0" result="hardAlpha"/>
<feOffset dx="6" dy="10"/>
<feGaussianBlur stdDeviation="10"/>
<feComposite in2="hardAlpha" operator="out"/>
<feColorMatrix type="matrix" values="0 0 0 0 0.970833 0 0 0 0 0.248309 0 0 0 0 0.206302 0 0 0 0.25 0"/>
<feBlend mode="normal" in2="BackgroundImageFix" result="effect1_dropShadow_808_51459"/>
<feBlend mode="normal" in="SourceGraphic" in2="effect1_dropShadow_808_51459" result="shape"/>
</filter>
<linearGradient id="paint0_linear_808_51459" x1="107.503" y1="104.203" x2="16.7199" y2="12.8834" gradientUnits="userSpaceOnUse">
<stop stop-color="#EF3E31"/>
<stop offset="1" stop-color="#FF6060"/>
</linearGradient>
<clipPath id="clip0_808_51459">
<rect width="50" height="50" fill="white" transform="translate(37.2764 29.9727)"/>
</clipPath>
</defs>
</svg>   