<svg class="review-svg" width="89" height="89" viewBox="0 0 89 89" fill="none"
                            xmlns="http://www.w3.org/2000/svg">
                            <g clip-path="url(#clip0_808_56244)">
                                <path
                                    d="M3.28559 43.8826L3.28559 71.4301L4.8332 72.9776C4.8332 72.9776 29.2918 72.9777 28.8848 72.9777C31.4612 72.9777 33.6342 71.0587 33.9527 68.502L35.9402 52.5492L51.2615 52.5492C54.0821 52.5492 56.3687 50.2626 56.3687 47.4421C56.3687 44.6216 54.0821 42.335 51.2615 42.335L23.7161 42.335L27.7707 37.5029C29.5801 35.3465 29.4319 31.9536 27.4415 29.9633C25.4509 27.9727 22.3421 28.1086 20.5326 30.2649L10.4046 42.335L4.8332 42.3349L3.28559 43.8826Z"
                                    fill="#FFCCBD" />
                                <path
                                    d="M28.889 72.9784L4.83299 72.9784L3.28538 71.4308L3.28538 47.6719L56.3638 47.6719C56.2431 50.3864 54.0052 52.5499 51.2613 52.5499L35.94 52.5499L33.9528 68.5027C33.634 71.0578 31.4643 72.9753 28.889 72.9784V72.9784Z"
                                    fill="#FFBDA9" />
                                <path
                                    d="M4.83349 72.9767L1.73827 72.9767C0.883527 72.9767 0.190662 72.2838 0.190662 71.4291L0.190663 43.8816C0.190663 43.0268 0.883528 42.334 1.73827 42.334L4.8335 42.334L4.83349 72.9767Z"
                                    fill="#0066B2" />
                                <path
                                    d="M4.83349 72.9784L1.73827 72.9784C0.883992 72.9784 0.190662 72.2851 0.190662 71.4308L0.190663 47.6719L4.8335 47.6719L4.83349 72.9784Z"
                                    fill="#004692" />
                                <path
                                    d="M63.2968 23.1905C63.4019 23.0853 63.4019 22.9276 63.2968 22.8225C63.2617 22.7875 63.2091 22.7524 63.1566 22.7524L56.9186 21.8413C56.831 21.8237 56.7609 21.7712 56.7259 21.7011L53.9223 16.0414C53.8522 15.9187 53.7121 15.8662 53.5719 15.9187C53.5193 15.9363 53.4843 15.9888 53.4492 16.0414L50.6632 21.7011C50.6281 21.7712 50.5581 21.8237 50.4704 21.8413L44.2325 22.7524C44.0923 22.7699 44.0047 22.9101 44.0222 23.0503C44.0222 23.1029 44.0573 23.1554 44.0923 23.1905L48.6131 27.5886C48.6656 27.6411 48.7007 27.7287 48.6832 27.8164L47.6143 34.0368C47.5968 34.1769 47.6844 34.2996 47.8246 34.3346C47.8771 34.3522 47.9297 34.3346 47.9823 34.3171L53.5719 31.3734C53.642 31.3383 53.7296 31.3383 53.8172 31.3734L59.4068 34.3171C59.5295 34.3872 59.6872 34.3346 59.7573 34.212C59.7748 34.1594 59.7923 34.1069 59.7748 34.0543L58.7059 27.8339C58.6884 27.7463 58.7234 27.6587 58.776 27.6061L63.2968 23.1905Z"
                                    fill="#FFCD29" />
                                <path
                                    d="M72.6189 22.2107C72.7065 22.1231 72.7065 22.0004 72.6189 21.9128C72.5839 21.8778 72.5488 21.8602 72.4963 21.8602L67.4849 21.1243C67.4148 21.1068 67.3622 21.0717 67.3272 21.0192L65.0843 16.4809C65.0318 16.3758 64.9091 16.3407 64.804 16.3933C64.7689 16.4108 64.7339 16.4459 64.7164 16.4809L62.4735 21.0192C62.4385 21.0717 62.3859 21.1243 62.3158 21.1243L57.3045 21.8602C57.2869 21.8602 57.2519 21.8778 57.2344 21.8778L63.1394 22.7364C63.2796 22.7539 63.3672 22.8941 63.3496 23.0342C63.3496 23.0868 63.3146 23.1394 63.2796 23.1744L60.7388 25.6626L60.8264 25.7502C60.879 25.8028 60.8965 25.8728 60.879 25.9254L60.0204 30.9193C60.0029 31.0244 60.073 31.1295 60.1956 31.1646C60.2482 31.1646 60.2832 31.1646 60.3183 31.1471L64.804 28.7815C64.8566 28.7465 64.9266 28.7465 64.9967 28.7815L69.4824 31.1471C69.5876 31.1996 69.7102 31.1646 69.7628 31.0594C69.7803 31.0244 69.7978 30.9718 69.7803 30.9368L68.9217 25.9429C68.9042 25.8728 68.9392 25.8028 68.9743 25.7677L72.6189 22.2107Z"
                                    fill="#FFAE2C" />
                                <path
                                    d="M46.493 25.9254C46.4754 25.8553 46.5105 25.7852 46.5455 25.7502L46.6331 25.6626L44.0924 23.1744C43.9873 23.0693 43.9873 22.9116 44.0924 22.8064C44.1275 22.7714 44.18 22.7364 44.2326 22.7364L50.1376 21.8778C50.1201 21.8602 50.1026 21.8602 50.0675 21.8602L45.0561 21.1243C44.9861 21.1068 44.9335 21.0717 44.8984 21.0192L42.6556 16.4809C42.603 16.3758 42.4804 16.3407 42.3752 16.3933C42.3402 16.4108 42.3051 16.4459 42.2876 16.4809L40.0448 21.0192C40.0097 21.0717 39.9572 21.1243 39.8871 21.1243L34.8757 21.8602C34.7706 21.8778 34.683 21.9829 34.7005 22.088C34.7005 22.1406 34.7355 22.1756 34.7531 22.2107L38.3802 25.7502C38.4327 25.8028 38.4502 25.8728 38.4327 25.9254L37.5741 30.9193C37.5566 31.0244 37.6267 31.1295 37.7494 31.1646C37.8019 31.1646 37.837 31.1646 37.872 31.1471L42.3577 28.7815C42.4103 28.7465 42.4804 28.7465 42.5505 28.7815L47.0362 31.1471C47.1413 31.1996 47.2639 31.1646 47.3165 31.0594C47.334 31.0244 47.3516 30.9718 47.334 30.9368L46.493 25.9254Z"
                                    fill="#FFAE2C" />
                                <path
                                    d="M75.65 19.6541C75.7026 19.6015 75.7026 19.5139 75.65 19.4613C75.6325 19.4438 75.5975 19.4263 75.5799 19.4263L72.3559 18.9532C72.3208 18.9532 72.2682 18.9181 72.2507 18.8831L70.8139 15.9744C70.7788 15.9043 70.7088 15.8868 70.6387 15.9218C70.6211 15.9393 70.5861 15.9569 70.5861 15.9744L69.1493 18.8831C69.1318 18.9181 69.0967 18.9532 69.0441 18.9532L66.5034 19.3211L67.3445 21.0208C67.3795 21.0734 67.4321 21.1259 67.5022 21.1259L72.5135 21.8619C72.6187 21.8794 72.7063 21.9845 72.6888 22.0897C72.6888 22.1422 72.6537 22.1773 72.6362 22.2123L70.884 23.9295L73.6525 25.3838C73.7226 25.4189 73.7927 25.4014 73.8277 25.3313C73.8452 25.3138 73.8452 25.2787 73.8452 25.2437L73.3021 22.0371C73.3021 22.002 73.3021 21.9495 73.3371 21.9144L75.65 19.6541Z"
                                    fill="#FC9322" />
                                <path
                                    d="M38.3455 18.9688C38.3105 18.9688 38.2579 18.9338 38.2404 18.8987L36.8035 15.99C36.7685 15.9199 36.6984 15.9024 36.6283 15.9374C36.6108 15.955 36.5758 15.9725 36.5758 15.99L35.1389 18.8987C35.1214 18.9338 35.0864 18.9688 35.0338 18.9688L31.8097 19.4419C31.7396 19.4594 31.687 19.512 31.7046 19.5996C31.7046 19.6346 31.7221 19.6522 31.7396 19.6697L34.0701 21.9476C34.1051 21.9826 34.1226 22.0177 34.1051 22.0702L33.5619 25.2768C33.5444 25.3469 33.597 25.417 33.6671 25.4345C33.7021 25.4345 33.7196 25.4345 33.7547 25.417L36.5232 23.9276L34.771 22.2104C34.6833 22.1228 34.6833 22.0002 34.771 21.9125C34.806 21.8775 34.841 21.86 34.8936 21.86L39.905 21.124C39.9751 21.1065 40.0276 21.0715 40.0627 21.0189L40.9037 19.3192L38.3455 18.9688Z"
                                    fill="#FC9322" />
                                <path
                                    d="M41.8322 33.7945L41.5168 33.7945L41.5168 33.4791C41.5168 33.2338 41.324 33.041 41.0787 33.041C40.8334 33.041 40.6407 33.2338 40.6407 33.4791L40.6407 33.7945L40.3253 33.7945C40.08 33.7945 39.8872 33.9872 39.8872 34.2325C39.8872 34.4778 40.08 34.6706 40.3253 34.6706L40.6407 34.6706L40.6407 34.986C40.6407 35.2313 40.8334 35.424 41.0787 35.424C41.324 35.424 41.5168 35.2313 41.5168 34.986L41.5168 34.6706L41.8322 34.6706C42.0775 34.6706 42.2702 34.4778 42.2702 34.2325C42.2702 33.9872 42.0775 33.7945 41.8322 33.7945Z"
                                    fill="#7ED555" />
                                <path
                                    d="M51.8723 36.1937C51.8547 36.1412 51.8372 36.0886 51.8022 36.036C51.7846 36.0185 51.7671 35.9835 51.7496 35.9659C51.5744 35.8082 51.3116 35.8082 51.1363 35.9659C51.1188 35.9835 51.1013 36.001 51.0838 36.036C51.0663 36.0535 51.0487 36.0886 51.0487 36.1061C51.0312 36.1412 51.0312 36.1587 51.0312 36.1937C51.0137 36.2463 51.0137 36.3164 51.0312 36.3689C51.0312 36.404 51.0487 36.4215 51.0487 36.4566C51.0663 36.4741 51.0663 36.5091 51.0838 36.5267C51.1013 36.5442 51.1188 36.5792 51.1363 36.5967C51.3116 36.772 51.5744 36.772 51.7496 36.5967C51.7671 36.5792 51.7846 36.5617 51.8022 36.5267C51.8197 36.5091 51.8372 36.4741 51.8372 36.4566C51.8547 36.439 51.8547 36.404 51.8547 36.3689C51.8898 36.3164 51.8898 36.2463 51.8723 36.1937Z"
                                    fill="#EA4647" />
                                <path
                                    d="M59.2321 1.21911C59.2146 1.16655 59.1971 1.11398 59.162 1.06141C59.1445 1.04389 59.127 1.00884 59.1095 0.991322C58.9343 0.833622 58.6714 0.833622 58.4962 0.991322C58.4787 1.00884 58.4612 1.02637 58.4436 1.06141C58.4261 1.07893 58.4086 1.11398 58.4086 1.1315C58.3911 1.16655 58.3911 1.18407 58.3911 1.21911C58.3735 1.27168 58.3735 1.34177 58.3911 1.39434C58.3911 1.42938 58.4086 1.4469 58.4086 1.48195C58.4261 1.49947 58.4261 1.53451 58.4436 1.55204C58.4612 1.56956 58.4787 1.6046 58.4962 1.62213C58.6714 1.79735 58.9343 1.79735 59.1095 1.62213C59.127 1.6046 59.1445 1.58708 59.162 1.55204C59.1796 1.53451 59.1971 1.49947 59.1971 1.48195C59.2146 1.46442 59.2146 1.42938 59.2146 1.39434C59.2497 1.32425 59.2497 1.27168 59.2321 1.21911Z"
                                    fill="#FFCD29" />
                                <path
                                    d="M65.7637 5.31964C65.0453 5.17946 64.5021 4.61875 64.3619 3.91786C64.3619 3.90033 64.3444 3.88281 64.3269 3.88281C64.3093 3.88281 64.3093 3.90033 64.2918 3.91786C64.1516 4.63627 63.5909 5.17946 62.89 5.31964C62.8725 5.31964 62.855 5.33716 62.855 5.35468C62.855 5.37221 62.8725 5.37221 62.89 5.38973C63.6084 5.52991 64.1516 6.09062 64.2918 6.79151C64.2918 6.80903 64.3093 6.82655 64.3269 6.82655C64.3444 6.82655 64.3444 6.80903 64.3619 6.79151C64.5021 6.0731 65.0628 5.52991 65.7637 5.38973C65.7812 5.38973 65.7987 5.37221 65.7987 5.35468C65.7987 5.33716 65.7812 5.31964 65.7637 5.31964Z"
                                    fill="#6DCC6D" />
                                <path
                                    d="M48.3154 38.8392C47.597 38.699 47.0538 38.1383 46.9137 37.4374C46.9137 37.4199 46.8961 37.4023 46.8786 37.4023C46.8611 37.4023 46.8611 37.4199 46.8436 37.4374C46.7034 38.1558 46.1427 38.699 45.4418 38.8392C45.4243 38.8392 45.4067 38.8567 45.4067 38.8742C45.4067 38.8917 45.4243 38.8917 45.4418 38.9093C46.1602 39.0494 46.7034 39.6102 46.8436 40.311C46.8436 40.3286 46.8611 40.3461 46.8786 40.3461C46.8961 40.3461 46.8961 40.3286 46.9137 40.311C47.0538 39.5926 47.6145 39.0494 48.3154 38.9093C48.333 38.9093 48.3505 38.8917 48.3505 38.8742C48.333 38.8567 48.333 38.8392 48.3154 38.8392Z"
                                    fill="#FFCD29" />
                                <path
                                    d="M63.7703 22.7892C63.6827 22.5438 63.4724 22.3511 63.2096 22.3161L57.0592 21.4224L54.3082 15.8503C54.1856 15.605 53.9578 15.4648 53.695 15.4648C53.4321 15.4648 53.1868 15.6225 53.0817 15.8503L50.3307 21.4224L44.1804 22.3161C43.7949 22.3686 43.5321 22.7191 43.6021 23.1046C43.6197 23.2623 43.6898 23.4024 43.8124 23.5076L48.2631 27.8356L47.2117 33.9508C47.1416 34.3363 47.4045 34.6868 47.7724 34.7569C47.9301 34.7744 48.0703 34.7569 48.2105 34.6868L53.7125 31.7956L59.2145 34.6868C59.5474 34.862 59.9679 34.7393 60.1432 34.3889C60.2133 34.2487 60.2308 34.091 60.2133 33.9508L59.1619 27.8356L63.6126 23.5076C63.7878 23.3148 63.8579 23.0345 63.7703 22.7892ZM58.461 27.2749C58.3033 27.4326 58.2157 27.6603 58.2683 27.8881L59.2671 33.7406L54.0104 30.9721C53.8001 30.8669 53.5723 30.8669 53.362 30.9721L48.1054 33.7406L49.1041 27.8881C49.1392 27.6603 49.0691 27.4326 48.9114 27.2749L44.6535 23.1221L50.5234 22.2635C50.7512 22.2284 50.944 22.0883 51.0491 21.878L53.6774 16.5512L56.3058 21.878C56.4109 22.0883 56.6037 22.2284 56.8315 22.2635L62.7014 23.1221L58.461 27.2749Z"
                                    fill="#231F20" />
                                <path
                                    d="M73.0917 21.8775C73.0216 21.6498 72.8114 21.4745 72.5661 21.4395L67.6774 20.7211L65.4871 16.2879C65.3819 16.0602 65.1541 15.9375 64.9088 15.9375C64.6635 15.9375 64.4357 16.0777 64.3306 16.2879L62.1403 20.7211L57.2516 21.4395C57.1815 21.457 57.1114 21.4745 57.0413 21.5096C56.8311 21.6322 56.7435 21.8951 56.8661 22.1053C56.9362 22.228 57.0589 22.3156 57.1815 22.3331L62.7186 23.1391L60.4407 25.3645C60.2654 25.5397 60.2654 25.8025 60.4407 25.9778L59.5996 30.8489C59.547 31.1994 59.7748 31.5323 60.1253 31.5849C60.2654 31.6024 60.4056 31.5849 60.5283 31.5148L64.9088 29.2194L69.2894 31.5148C69.6048 31.6725 69.9903 31.5674 70.1655 31.252C70.2356 31.1293 70.2531 30.9891 70.2356 30.8489L69.3945 25.9778L72.934 22.5259C73.0917 22.3506 73.1618 22.1053 73.0917 21.8775ZM68.6761 25.4346C68.5184 25.5747 68.4483 25.8025 68.4834 25.9953L69.2544 30.516L65.1892 28.3783C64.9964 28.2732 64.7862 28.2732 64.5934 28.3783L60.5283 30.516L61.2993 25.9953C61.3168 25.9077 61.3168 25.8025 61.2817 25.7149L63.5771 23.4896C63.8575 23.2268 63.8575 22.7887 63.5947 22.5083C63.4895 22.4032 63.3494 22.3331 63.1917 22.2981L60.2304 21.86L62.3681 21.5446C62.5784 21.5096 62.7536 21.3869 62.8587 21.1942L64.9088 17.094L66.9414 21.2117C67.029 21.4044 67.2218 21.5271 67.432 21.5621L71.9703 22.228L68.6761 25.4346Z"
                                    fill="#231F20" />
                                <path
                                    d="M50.348 21.5104C50.2779 21.4754 50.2078 21.4578 50.1377 21.4403L45.249 20.7219L43.0587 16.2888C42.901 15.9734 42.5155 15.8332 42.2001 15.9909C42.0774 16.061 41.9723 16.1486 41.9022 16.2888L39.7119 20.7219L34.8232 21.4403C34.4728 21.4929 34.2275 21.8258 34.28 22.1762C34.2976 22.3164 34.3677 22.4391 34.4728 22.5442L38.0123 25.9961L37.1712 30.8673C37.1187 31.2177 37.3464 31.5507 37.6969 31.6032C37.8371 31.6208 37.9772 31.6032 38.0999 31.5331L42.4805 29.2377L46.861 31.5331C47.1764 31.6908 47.5619 31.5857 47.7371 31.2703C47.8072 31.1477 47.8247 31.0075 47.8072 30.8673L46.9662 25.9961C47.1414 25.8209 47.1414 25.5405 46.9662 25.3828L44.6883 23.1575L50.2253 22.3515C50.4706 22.3164 50.6283 22.0886 50.5933 21.8608C50.5582 21.6856 50.4706 21.563 50.348 21.5104ZM44.1801 22.3164C43.7946 22.369 43.5318 22.7194 43.6019 23.1049C43.6194 23.2626 43.6895 23.4028 43.8122 23.5079L46.1076 25.7333C46.09 25.8209 46.0725 25.926 46.09 26.0136L46.861 30.5344L42.7959 28.3967C42.6031 28.2915 42.3928 28.2915 42.2001 28.3967L38.1349 30.5344L38.9059 26.0136C38.941 25.8034 38.8709 25.5931 38.7132 25.4529L35.419 22.2463L39.9573 21.5805C40.1675 21.5454 40.3427 21.4228 40.4479 21.23L42.4805 17.0948L44.513 21.2125C44.6007 21.4053 44.7934 21.5279 45.0037 21.563L47.1414 21.8784L44.1801 22.3164Z"
                                    fill="#231F20" />
                                <path
                                    d="M76.0881 19.3899C76.0181 19.1796 75.8428 19.0394 75.6326 19.0044L72.5662 18.5663L71.1994 15.7978C71.1118 15.6051 70.9016 15.4824 70.6913 15.4824C70.481 15.4824 70.2708 15.6051 70.1831 15.7978L68.8164 18.5663L66.4334 18.9168C66.1881 18.9518 66.0304 19.1796 66.0654 19.4074C66.0654 19.46 66.0829 19.495 66.1005 19.5301L66.9415 21.2297C67.0291 21.4225 67.2219 21.5451 67.4321 21.5802L71.9704 22.246L70.5511 23.6303C70.3759 23.8055 70.3759 24.0683 70.5511 24.2435C70.5862 24.2786 70.6212 24.2961 70.6562 24.3312L73.4248 25.7855C73.7051 25.9257 74.0556 25.8205 74.1957 25.5402C74.2483 25.4351 74.2658 25.2949 74.2483 25.1722L73.7226 22.1234L75.9304 19.9681C76.1057 19.8104 76.1582 19.6001 76.0881 19.3899ZM71.6024 23.823L72.9166 22.5439L73.2846 24.7166L71.6024 23.823ZM73.0042 21.6152C72.9867 21.6327 72.9692 21.6503 72.9692 21.6678C72.864 21.5451 72.7239 21.475 72.5662 21.44L67.6775 20.7216L67.1693 19.6702L69.1143 19.3899C69.307 19.3548 69.4647 19.2497 69.5348 19.0745L70.6913 16.709L71.8653 19.0745C71.9529 19.2497 72.1106 19.3548 72.2858 19.3899L74.8966 19.7754L73.0042 21.6152Z"
                                    fill="#231F20" />
                                <path
                                    d="M41.2715 19.1268C41.2014 19.0042 41.0787 18.9166 40.9386 18.899L38.5555 18.5486L37.1888 15.7801C37.0486 15.4997 36.7157 15.3771 36.4178 15.5172C36.3127 15.5698 36.2076 15.6574 36.155 15.7801L34.7883 18.5486L31.7219 18.9866C31.4065 19.0392 31.1962 19.3196 31.2488 19.635C31.2663 19.7576 31.3189 19.8803 31.4065 19.9679L33.6143 22.1231L33.0886 25.172C33.036 25.4874 33.2463 25.7678 33.5442 25.8379C33.6668 25.8554 33.7895 25.8379 33.9122 25.7853L36.6807 24.3309C36.8909 24.2258 36.9785 23.9454 36.8559 23.7352C36.8384 23.7001 36.8033 23.6651 36.7683 23.63L35.349 22.2458L39.8872 21.5799C40.0975 21.5449 40.2727 21.4222 40.3779 21.2295L41.2189 19.5298C41.3416 19.4072 41.3416 19.2495 41.2715 19.1268ZM35.787 23.8228L34.0874 24.7164L34.4553 22.5437L35.787 23.8228ZM39.712 20.7213L34.8233 21.4398C34.6656 21.4573 34.5254 21.5449 34.4203 21.6676C34.4028 21.65 34.4028 21.6325 34.3853 21.615L32.4929 19.7751L35.1037 19.3897C35.2964 19.3546 35.4541 19.2495 35.5242 19.0743L36.6807 16.7087L37.8371 19.0743C37.9247 19.2495 38.0824 19.3546 38.2577 19.3897L40.2026 19.67L39.712 20.7213Z"
                                    fill="#231F20" />
                                <path
                                    d="M53.6949 6.82617C53.4496 6.82617 53.2568 7.01892 53.2568 7.26423L53.2568 9.87505C53.2568 10.1204 53.4496 10.3131 53.6949 10.3131C53.9402 10.3131 54.1329 10.1204 54.1329 9.87505L54.1329 7.26423C54.1329 7.01892 53.9402 6.82617 53.6949 6.82617Z"
                                    fill="#231F20" />
                                <path
                                    d="M58.8991 7.38599C58.6713 7.33342 58.426 7.4736 58.3734 7.71891L57.7776 10.2596C57.7251 10.4874 57.8652 10.7327 58.093 10.7853C58.3208 10.8379 58.5661 10.6977 58.6187 10.4699L59.2145 7.92918C59.2846 7.66634 59.1444 7.43855 58.8991 7.38599Z"
                                    fill="#231F20" />
                                <path
                                    d="M63.7177 8.99942C63.5074 8.87677 63.2446 8.96438 63.1219 9.17464L61.8778 11.4701C61.7552 11.6803 61.8428 11.9432 62.0531 12.0658C62.2633 12.1885 62.5262 12.1009 62.6488 11.8906L63.8929 9.59518C63.998 9.36739 63.928 9.10456 63.7177 8.99942Z"
                                    fill="#231F20" />
                                <path
                                    d="M67.7829 12.4509C67.6427 12.2406 67.3799 12.1881 67.1696 12.3282L64.9968 13.7651C64.7866 13.8877 64.734 14.1681 64.8567 14.3783C64.9793 14.5886 65.2597 14.6412 65.4699 14.5185C65.4699 14.5185 65.47 14.5185 65.4875 14.5185L67.6602 13.0817C67.853 12.924 67.9055 12.6612 67.7829 12.4509Z"
                                    fill="#231F20" />
                                <path
                                    d="M49.6119 10.244L49.0162 7.7033C48.9636 7.47551 48.7183 7.3178 48.4905 7.38789C48.2627 7.44046 48.1225 7.68577 48.1751 7.91356L48.7533 10.4368C48.8059 10.6646 49.0337 10.8223 49.279 10.7697C49.5243 10.7171 49.6645 10.4893 49.6119 10.244Z"
                                    fill="#231F20" />
                                <path
                                    d="M45.5121 11.4525L44.268 9.15707C44.1453 8.9468 43.8825 8.85919 43.6722 8.98184C43.4619 9.1045 43.3743 9.36733 43.497 9.5776L44.7411 11.873C44.8637 12.0833 45.1266 12.1709 45.3368 12.0482C45.5471 11.9431 45.6172 11.6803 45.5121 11.4525Z"
                                    fill="#231F20" />
                                <path
                                    d="M42.393 13.7645L40.2202 12.3276C40.0099 12.1875 39.7471 12.2575 39.6069 12.4503C39.4668 12.6606 39.5368 12.9234 39.7296 13.0636L41.9023 14.5004C42.0951 14.6406 42.3754 14.588 42.5156 14.3777C42.6558 14.185 42.6032 13.9046 42.393 13.7645Z"
                                    fill="#231F20" />
                            </g>
                            <defs>
                                <clipPath id="clip0_808_56244">
                                    <rect width="88" height="88" fill="white"
                                        transform="translate(88.1904 0.873047) rotate(90)" />
                                </clipPath>
                            </defs>
                        </svg>