<svg xmlns="http://www.w3.org/2000/svg" width="183" height="40" viewBox="0 0 183 40" fill="none">
<path d="M22.5871 4.57715H41.4697V35.418H22.5871V4.57715Z" fill="#FF5F00"/>
<path d="M24.5321 20.0005C24.5297 17.0308 25.2029 14.0995 26.5007 11.4284C27.7985 8.75729 29.6869 6.41638 32.023 4.58284C29.1297 2.30898 25.655 0.895006 21.996 0.502511C18.3371 0.110017 14.6416 0.754841 11.3318 2.36328C8.022 3.97173 5.2315 6.4789 3.27922 9.59825C1.32693 12.7176 0.291626 16.3233 0.291626 20.0032C0.291626 23.6831 1.32693 27.2888 3.27922 30.4082C5.2315 33.5275 8.022 36.0347 11.3318 37.6431C14.6416 39.2516 18.3371 39.8964 21.996 39.5039C25.655 39.1114 29.1297 37.6974 32.023 35.4236C29.6862 33.5895 27.7974 31.2477 26.4995 28.5756C25.2017 25.9034 24.5289 22.971 24.5321 20.0004V20.0005Z" fill="#EB001B"/>
<path d="M61.8831 32.1553V31.5234H62.1555V31.3926H61.5073V31.5234H61.7633V32.1554L61.8831 32.1553ZM63.1416 32.1553V31.3927H62.9455L62.7167 31.9374L62.4878 31.3926H62.2918V32.1553H62.4334V31.5778L62.6459 32.0736H62.7929L63.0055 31.5778V32.1553H63.1416Z" fill="#F79E1B"/>
<path d="M63.7573 20.0005C63.7572 23.6807 62.7216 27.2866 60.769 30.4061C58.8163 33.5255 56.0254 36.0326 52.7152 37.6409C49.405 39.2491 45.7091 39.8935 42.0499 39.5004C38.3908 39.1073 34.9161 37.6926 32.0229 35.4181C34.3581 33.5829 36.2459 31.2414 37.5441 28.5701C38.8422 25.8989 39.5167 22.9677 39.5167 19.9977C39.5167 17.0277 38.8422 14.0965 37.5441 11.4253C36.2459 8.75406 34.3581 6.41251 32.0229 4.57734C34.9161 2.30276 38.3908 0.888075 42.05 0.495009C45.7091 0.101942 49.405 0.746351 52.7152 2.35457C56.0255 3.9628 58.8164 6.46994 60.769 9.58941C62.7217 12.7089 63.7572 16.3148 63.7573 19.995V20.0005Z" fill="#F79E1B"/>
<path d="M127.127 13.9766H122.188C122.025 13.9765 121.867 14.0347 121.742 14.1409C121.618 14.2471 121.536 14.3942 121.51 14.5557L119.513 27.2193C119.504 27.278 119.507 27.3381 119.524 27.3953C119.54 27.4525 119.568 27.5055 119.607 27.5507C119.646 27.5958 119.694 27.6321 119.748 27.6569C119.802 27.6817 119.861 27.6945 119.92 27.6944H122.278C122.441 27.6945 122.6 27.6361 122.724 27.5298C122.848 27.4235 122.931 27.2762 122.956 27.1146L123.495 23.699C123.52 23.5375 123.602 23.3903 123.726 23.284C123.85 23.1777 124.008 23.1192 124.172 23.1192H125.735C128.988 23.1192 130.866 21.545 131.356 18.4255C131.577 17.0607 131.366 15.9884 130.727 15.2374C130.025 14.4127 128.78 13.9766 127.127 13.9766ZM127.697 18.6017C127.426 20.3737 126.073 20.3737 124.763 20.3737H124.018L124.541 17.0643C124.556 16.9675 124.606 16.8793 124.68 16.8156C124.755 16.7519 124.849 16.717 124.948 16.717H125.289C126.181 16.717 127.022 16.717 127.457 17.2253C127.716 17.5286 127.795 17.9792 127.697 18.6017ZM141.889 18.5446H139.524C139.426 18.5446 139.331 18.5796 139.257 18.6433C139.182 18.7069 139.133 18.7951 139.117 18.8919L139.013 19.5534L138.847 19.3137C138.335 18.5706 137.194 18.3222 136.054 18.3222C133.441 18.3222 131.209 20.3015 130.774 23.078C130.548 24.463 130.869 25.7873 131.655 26.7109C132.376 27.5601 133.407 27.9139 134.634 27.9139C136.74 27.9139 137.907 26.56 137.907 26.56L137.802 27.2171C137.792 27.2759 137.796 27.3359 137.812 27.3932C137.828 27.4505 137.856 27.5036 137.895 27.5489C137.933 27.5942 137.981 27.6306 138.035 27.6556C138.089 27.6806 138.148 27.6936 138.208 27.6937H140.338C140.501 27.6938 140.66 27.6354 140.784 27.5291C140.908 27.4227 140.991 27.2755 141.016 27.1138L142.294 19.0198C142.303 18.9611 142.3 18.9012 142.284 18.844C142.268 18.7868 142.24 18.7338 142.201 18.6887C142.163 18.6435 142.115 18.6072 142.061 18.5823C142.007 18.5575 141.948 18.5446 141.889 18.5446ZM138.592 23.1473C138.364 24.4984 137.292 25.4053 135.924 25.4053C135.238 25.4053 134.689 25.1851 134.336 24.7677C133.987 24.3532 133.854 23.7633 133.965 23.1062C134.178 21.7666 135.269 20.8301 136.615 20.8301C137.287 20.8301 137.833 21.0532 138.192 21.4742C138.553 21.8995 138.696 22.4931 138.592 23.1473ZM154.484 18.5446H152.107C151.995 18.5448 151.885 18.5723 151.786 18.6248C151.687 18.6773 151.602 18.7531 151.539 18.8457L148.261 23.6737L146.872 19.0342C146.829 18.8927 146.742 18.7687 146.624 18.6805C146.505 18.5923 146.361 18.5447 146.214 18.5446H143.878C143.813 18.5444 143.748 18.5599 143.69 18.5898C143.631 18.6196 143.581 18.663 143.543 18.7163C143.505 18.7695 143.48 18.8311 143.47 18.896C143.46 18.9608 143.466 19.027 143.488 19.0891L146.105 26.7708L143.644 30.2449C143.601 30.3065 143.575 30.3789 143.569 30.4543C143.564 30.5297 143.58 30.605 143.614 30.6721C143.649 30.7392 143.701 30.7955 143.766 30.8348C143.83 30.8741 143.905 30.8948 143.98 30.8948H146.354C146.464 30.8949 146.574 30.8682 146.672 30.8169C146.77 30.7656 146.854 30.6912 146.918 30.6002L154.822 19.1909C154.865 19.1292 154.89 19.0569 154.894 18.9819C154.899 18.9069 154.883 18.8321 154.848 18.7655C154.814 18.6989 154.761 18.6431 154.697 18.6042C154.633 18.5652 154.559 18.5446 154.484 18.5446Z" fill="#D1D5DB"/>
<path d="M162.352 13.9773H157.413C157.249 13.9774 157.091 14.0357 156.967 14.1419C156.843 14.2481 156.761 14.395 156.735 14.5564L154.738 27.22C154.729 27.2787 154.732 27.3386 154.749 27.3958C154.765 27.453 154.793 27.5059 154.832 27.5511C154.87 27.5963 154.918 27.6325 154.972 27.6574C155.026 27.6823 155.085 27.6951 155.144 27.6951H157.679C157.793 27.695 157.903 27.654 157.99 27.5796C158.077 27.5052 158.135 27.4023 158.152 27.2893L158.719 23.6997C158.744 23.5382 158.827 23.3911 158.951 23.2848C159.075 23.1784 159.233 23.12 159.396 23.1199H160.959C164.213 23.1199 166.09 21.5457 166.581 18.4262C166.802 17.0614 166.589 15.9891 165.95 15.2381C165.249 14.4134 164.005 13.9773 162.352 13.9773ZM162.922 18.6024C162.652 20.3744 161.298 20.3744 159.989 20.3744H159.244L159.768 17.065C159.783 16.9682 159.832 16.8799 159.906 16.8162C159.981 16.7525 160.075 16.7176 160.173 16.7177H160.515C161.406 16.7177 162.248 16.7177 162.683 17.226C162.942 17.5293 163.021 17.9799 162.922 18.6024ZM177.113 18.5453H174.75C174.652 18.5451 174.557 18.58 174.483 18.6437C174.408 18.7074 174.359 18.7958 174.344 18.8927L174.239 19.5541L174.073 19.3144C173.561 18.5713 172.42 18.3229 171.281 18.3229C168.668 18.3229 166.436 20.3022 166.002 23.0787C165.776 24.4637 166.096 25.7881 166.882 26.7116C167.604 27.5608 168.634 27.9147 169.861 27.9147C171.966 27.9147 173.134 26.5607 173.134 26.5607L173.028 27.2178C173.019 27.2767 173.022 27.3369 173.039 27.3943C173.055 27.4517 173.083 27.5049 173.122 27.5502C173.161 27.5955 173.209 27.6319 173.263 27.6568C173.317 27.6817 173.376 27.6945 173.436 27.6944H175.565C175.729 27.6943 175.887 27.6359 176.011 27.5295C176.135 27.4232 176.217 27.2761 176.242 27.1146L177.521 19.0205C177.53 18.9617 177.527 18.9016 177.51 18.8444C177.494 18.7872 177.465 18.7342 177.427 18.689C177.388 18.6439 177.34 18.6077 177.286 18.5829C177.232 18.5581 177.173 18.5453 177.113 18.5453ZM173.817 23.148C173.59 24.4991 172.516 25.4061 171.149 25.4061C170.463 25.4061 169.913 25.1858 169.561 24.7684C169.211 24.354 169.08 23.764 169.19 23.1069C169.404 21.7674 170.493 20.8308 171.84 20.8308C172.511 20.8308 173.057 21.0539 173.417 21.4749C173.779 21.9002 173.922 22.4938 173.817 23.148ZM179.901 14.3246L177.874 27.22C177.865 27.2787 177.869 27.3386 177.885 27.3958C177.901 27.453 177.929 27.5059 177.968 27.5511C178.006 27.5963 178.054 27.6325 178.108 27.6574C178.162 27.6823 178.221 27.6951 178.28 27.6951H180.318C180.657 27.6951 180.944 27.4496 180.996 27.1153L182.995 14.4524C183.004 14.3937 183.001 14.3337 182.985 14.2765C182.968 14.2193 182.94 14.1663 182.902 14.1211C182.863 14.0759 182.815 14.0395 182.761 14.0146C182.707 13.9896 182.649 13.9767 182.589 13.9766H180.307C180.209 13.9769 180.115 14.0121 180.04 14.0759C179.966 14.1397 179.917 14.2278 179.901 14.3246Z" fill="#179BD7"/>
<path d="M99.0049 30.1556L99.3826 27.7568L98.5413 27.7373H94.5242L97.3159 10.0363C97.3242 9.98222 97.3517 9.93292 97.3933 9.8974C97.4349 9.86187 97.4879 9.84249 97.5426 9.84278H104.316C106.565 9.84278 108.116 10.3107 108.927 11.2343C109.306 11.6675 109.548 12.1203 109.665 12.6186C109.788 13.1414 109.79 13.766 109.67 14.5278L109.662 14.5834V15.0715L110.042 15.2867C110.332 15.4336 110.592 15.6324 110.811 15.8731C111.136 16.2435 111.346 16.7143 111.435 17.2725C111.526 17.8466 111.496 18.5297 111.346 19.3031C111.172 20.1927 110.892 20.9675 110.514 21.6016C110.18 22.1695 109.731 22.6615 109.196 23.0458C108.693 23.4025 108.096 23.6733 107.421 23.8466C106.767 24.017 106.021 24.1029 105.203 24.1029H104.676C104.299 24.1029 103.933 24.2387 103.645 24.482C103.358 24.728 103.168 25.0678 103.108 25.441L103.068 25.6569L102.401 29.8848L102.371 30.0401C102.363 30.0892 102.349 30.1138 102.329 30.1304C102.309 30.1464 102.285 30.1553 102.259 30.1556H99.0049Z" fill="#D1D5DB"/>
<path d="M110.401 14.6396C110.381 14.7689 110.358 14.9011 110.332 15.0368C109.438 19.6229 106.382 21.2072 102.479 21.2072H100.492C100.015 21.2072 99.6126 21.5538 99.5382 22.0246L98.5207 28.4774L98.2326 30.3065C98.2211 30.379 98.2255 30.4532 98.2455 30.5239C98.2654 30.5946 98.3004 30.6601 98.3481 30.716C98.3958 30.7719 98.4551 30.8167 98.5218 30.8475C98.5885 30.8783 98.661 30.8942 98.7345 30.8943H102.259C102.676 30.8943 103.031 30.591 103.097 30.1794L103.131 30.0003L103.795 25.789L103.838 25.5579C103.903 25.1449 104.258 24.8416 104.675 24.8416H105.202C108.617 24.8416 111.29 23.4551 112.072 19.4431C112.398 17.7671 112.229 16.3676 111.366 15.3834C111.092 15.079 110.765 14.8269 110.401 14.6396Z" fill="#179BD7"/>
<path d="M109.466 14.2672C109.181 14.1847 108.891 14.1203 108.598 14.0744C108.018 13.9853 107.432 13.9425 106.846 13.9465H101.537C101.335 13.9464 101.139 14.0185 100.986 14.1499C100.832 14.2813 100.731 14.4632 100.7 14.6629L99.5706 21.8161L99.5381 22.0248C99.5733 21.797 99.6888 21.5894 99.8638 21.4395C100.039 21.2896 100.262 21.2072 100.492 21.2073H102.479C106.382 21.2073 109.438 19.6223 110.331 15.0369C110.358 14.9012 110.381 14.769 110.401 14.6398C110.165 14.5162 109.919 14.4125 109.666 14.33C109.6 14.308 109.533 14.287 109.466 14.2672Z" fill="#222D65"/>
<path d="M100.7 14.663C100.73 14.4633 100.832 14.2813 100.985 14.15C101.139 14.0186 101.334 13.9468 101.536 13.9474H106.845C107.474 13.9474 108.061 13.9886 108.597 14.0752C108.96 14.1322 109.317 14.2174 109.667 14.3301C109.93 14.4175 110.175 14.5208 110.401 14.6399C110.667 12.9451 110.399 11.7912 109.483 10.7463C108.472 9.59599 106.649 9.10352 104.316 9.10352H97.5425C97.0659 9.10352 96.6593 9.45013 96.5857 9.92166L93.7644 27.8046C93.7513 27.8877 93.7563 27.9725 93.7791 28.0535C93.8019 28.1344 93.8419 28.2094 93.8965 28.2733C93.951 28.3373 94.0188 28.3887 94.0951 28.4239C94.1714 28.4592 94.2544 28.4775 94.3385 28.4776H98.5202L99.5702 21.8162L100.7 14.663Z" fill="#D1D5DB"/>
</svg>