<svg class="review-svg2" width="88" height="89" viewBox="0 0 88 89" fill="none"
    xmlns="http://www.w3.org/2000/svg">
    <path
        d="M69.0797 26.5732C66.0203 11.7056 51.4875 2.13319 36.6199 5.19253C23.889 7.8123 14.734 18.992 14.6756 31.9894C14.6756 32.6086 14.7012 33.2426 14.7562 33.9133C5.69924 34.8719 -0.865722 42.9911 0.0929637 52.0481C0.981564 60.4428 8.06615 66.8111 16.5078 66.8028H18.4317C18.3877 66.1946 18.3401 65.5899 18.3401 64.9705C18.3401 51.8153 29.0045 41.1507 42.1599 41.1507C55.3152 41.1507 65.9795 51.8153 65.9795 64.9705C65.9795 65.5897 65.9319 66.1944 65.8879 66.8028H67.8118C78.9309 66.8332 87.9694 57.844 87.9999 46.7247C88.0291 36.0555 79.7298 27.216 69.0797 26.5732Z"
        fill="#FBBBBB" />
    <path
        d="M42.16 85.1246C53.2913 85.1246 62.3151 76.1008 62.3151 64.9695C62.3151 53.8382 53.2913 44.8145 42.16 44.8145C31.0286 44.8145 22.0049 53.8382 22.0049 64.9695C22.0049 76.1008 31.0286 85.1246 42.16 85.1246Z"
        fill="#EA5C61" />
    <path
        d="M42.16 77.7947C41.148 77.7947 40.3276 76.9743 40.3276 75.9623V53.9749C40.3276 52.963 41.148 52.1426 42.16 52.1426C43.1719 52.1426 43.9923 52.963 43.9923 53.9749V75.9623C43.9922 76.9743 43.1719 77.7947 42.16 77.7947Z"
        fill="#FAFAFA" />
    <path
        d="M42.1599 77.7939C41.6736 77.7947 41.2069 77.6023 40.8626 77.2588L33.5334 69.9296C32.8303 69.2017 32.8506 68.0417 33.5784 67.3386C34.2885 66.6527 35.4142 66.6527 36.1243 67.3386L42.1599 73.3706L48.1918 67.3386C48.9196 66.6356 50.0796 66.6558 50.7827 67.3837C51.4686 68.0938 51.4686 69.2194 50.7827 69.9296L43.4535 77.2588C43.11 77.6013 42.6448 77.7937 42.1599 77.7939Z"
        fill="#FAFAFA" />
</svg>