<svg xmlns="http://www.w3.org/2000/svg" viewBox="0 0 26 26" fill="none">
<circle cx="13.3164" cy="13.2422" r="12" stroke="#6D28D9"/>
<mask id="mask0_808_45570" style="mask-type:alpha" maskUnits="userSpaceOnUse" x="8" y="8" width="11" height="11">
<path d="M16.5855 10.5763C16.5855 10.244 16.3161 9.9756 15.985 9.9756C15.6539 9.9756 15.3843 10.244 15.3843 10.5763C15.3843 10.9074 15.6539 11.1758 15.985 11.1758C16.3161 11.1758 16.5855 10.9074 16.5855 10.5763Z" fill="url(#paint0_linear_808_45570)"/>
<path d="M17.3858 15.2643C17.3636 15.7519 17.282 16.0168 17.2143 16.1927C17.1234 16.426 17.0149 16.5927 16.839 16.7677C16.665 16.9426 16.4982 17.0509 16.2649 17.1408C16.089 17.2095 15.8231 17.2913 15.3356 17.3145C14.8085 17.3378 14.6524 17.3427 13.3158 17.3427C11.9804 17.3427 11.823 17.3378 11.296 17.3145C10.8084 17.2913 10.5438 17.2095 10.3678 17.1408C10.1334 17.0509 9.9678 16.9426 9.79285 16.7677C9.61666 16.5927 9.50819 16.426 9.41849 16.1927C9.35077 16.0168 9.268 15.7519 9.24699 15.2643C9.2213 14.7373 9.21659 14.5786 9.21659 13.2448C9.21659 11.9082 9.2213 11.7508 9.24699 11.2237C9.268 10.7362 9.35077 10.4715 9.41849 10.2941C9.50819 10.0611 9.61666 9.89527 9.79285 9.72033C9.9678 9.54564 10.1334 9.43715 10.3678 9.34622C10.5438 9.27728 10.8084 9.19672 11.296 9.1735C11.823 9.15026 11.9804 9.14433 13.3158 9.14433C14.6524 9.14433 14.8085 9.15026 15.3356 9.1735C15.8231 9.19672 16.089 9.27728 16.2649 9.34622C16.4982 9.43715 16.665 9.54564 16.839 9.72033C17.0149 9.89527 17.1234 10.0611 17.2143 10.2941C17.282 10.4715 17.3636 10.7362 17.3858 11.2237C17.4103 11.7508 17.4162 11.9082 17.4162 13.2448C17.4162 14.5786 17.4103 14.7373 17.3858 15.2643ZM18.286 11.1827C18.2615 10.6499 18.1775 10.2859 18.0527 9.96892C17.9257 9.64002 17.7555 9.36129 17.4767 9.08256C17.1993 8.80507 16.9205 8.63481 16.5916 8.50632C16.2734 8.38277 15.9106 8.29776 15.3776 8.27453C14.8446 8.24883 14.6744 8.24414 13.3158 8.24414C11.9585 8.24414 11.787 8.24883 11.254 8.27453C10.7222 8.29776 10.3597 8.38277 10.0399 8.50632C9.71229 8.63481 9.43356 8.80507 9.15607 9.08256C8.87734 9.36129 8.70708 9.64002 8.57883 9.96892C8.45527 10.2859 8.37126 10.6499 8.34556 11.1827C8.32234 11.7157 8.31641 11.8862 8.31641 13.2448C8.31641 14.6021 8.32234 14.7723 8.34556 15.3053C8.37126 15.8371 8.45527 16.2008 8.57883 16.5194C8.70708 16.847 8.87734 17.127 9.15607 17.4045C9.43356 17.682 9.71229 17.8535 10.0399 17.9817C10.3597 18.1053 10.7222 18.1893 11.254 18.2137C11.787 18.2382 11.9585 18.2441 13.3158 18.2441C14.6744 18.2441 14.8446 18.2382 15.3776 18.2137C15.9106 18.1893 16.2734 18.1053 16.5916 17.9817C16.9205 17.8535 17.1993 17.682 17.4767 17.4045C17.7555 17.127 17.9257 16.847 18.0527 16.5194C18.1775 16.2008 18.2615 15.8371 18.286 15.3053C18.3105 14.7723 18.3164 14.6021 18.3164 13.2448C18.3164 11.8862 18.3105 11.7157 18.286 11.1827Z" fill="url(#paint1_linear_808_45570)"/>
<path d="M13.3157 14.9091C12.3957 14.9091 11.6492 14.1638 11.6492 13.2439C11.6492 12.3224 12.3957 11.5762 13.3157 11.5762C14.2359 11.5762 14.9834 12.3224 14.9834 13.2439C14.9834 14.1638 14.2359 14.9091 13.3157 14.9091ZM13.3157 10.6748C11.8976 10.6748 10.749 11.8258 10.749 13.2439C10.749 14.6608 11.8976 15.8105 13.3157 15.8105C14.7338 15.8105 15.8836 14.6608 15.8836 13.2439C15.8836 11.8258 14.7338 10.6748 13.3157 10.6748Z" fill="url(#paint2_linear_808_45570)"/>
</mask>
<g mask="url(#mask0_808_45570)">
<rect x="7.66016" y="7.57617" width="11.1563" height="11.3333" fill="#6D28D9"/>
</g>
<defs>
<linearGradient id="paint0_linear_808_45570" x1="8.40638" y1="18.1417" x2="17.4833" y2="9.0649" gradientUnits="userSpaceOnUse">
<stop stop-color="#FFD521"/>
<stop offset="0.05" stop-color="#FFD521"/>
<stop offset="0.501119" stop-color="#F50000"/>
<stop offset="0.95" stop-color="#B900B4"/>
<stop offset="0.950079" stop-color="#B900B4"/>
<stop offset="1" stop-color="#B900B4"/>
</linearGradient>
<linearGradient id="paint1_linear_808_45570" x1="8.4066" y1="18.1532" x2="17.491" y2="9.06885" gradientUnits="userSpaceOnUse">
<stop stop-color="#FFD521"/>
<stop offset="0.05" stop-color="#FFD521"/>
<stop offset="0.501119" stop-color="#F50000"/>
<stop offset="0.95" stop-color="#B900B4"/>
<stop offset="0.950079" stop-color="#B900B4"/>
<stop offset="1" stop-color="#B900B4"/>
</linearGradient>
<linearGradient id="paint2_linear_808_45570" x1="8.40884" y1="18.1526" x2="17.491" y2="9.0704" gradientUnits="userSpaceOnUse">
<stop stop-color="#FFD521"/>
<stop offset="0.05" stop-color="#FFD521"/>
<stop offset="0.501119" stop-color="#F50000"/>
<stop offset="0.95" stop-color="#B900B4"/>
<stop offset="0.950079" stop-color="#B900B4"/>
<stop offset="1" stop-color="#B900B4"/>
</linearGradient>
</defs>
</svg>