<svg width="49" height="49" viewBox="0 0 49 49" fill="none" xmlns="http://www.w3.org/2000/svg">
    <circle cx="24.8125" cy="24.6113" r="24" fill="#8B5CF6" fill-opacity="0.4" />
    <path
        d="M16.571 33.4949C20.9602 33.4949 23.6108 30.1539 23.6193 24.4011C23.6278 18.6909 20.9432 15.4181 16.571 15.4181C12.1903 15.4181 9.53125 18.6824 9.52273 24.4011C9.50568 30.1369 12.1733 33.4863 16.571 33.4949ZM16.571 30.4352C14.5682 30.4352 13.2727 28.4238 13.2812 24.4011C13.2898 20.438 14.5767 18.4437 16.571 18.4437C18.5568 18.4437 19.8523 20.438 19.8523 24.4011C19.8608 28.4238 18.5653 30.4352 16.571 30.4352ZM32.7024 33.35C36.6229 33.35 39.4268 31.1937 39.4183 28.2108C39.4268 26.0375 38.0462 24.4863 35.4808 24.1625V24.0261C37.4325 23.6767 38.7791 22.296 38.7706 20.3358C38.7791 17.5829 36.3672 15.4181 32.7536 15.4181C29.174 15.4181 26.4808 17.5147 26.4297 20.5318H29.9666C30.0092 19.2022 31.228 18.3414 32.7365 18.3414C34.228 18.3414 35.2251 19.2449 35.2166 20.5574C35.2251 21.9295 34.0575 22.8585 32.3786 22.8585H30.7507V25.5687H32.3786C34.3558 25.5687 35.5916 26.5574 35.5831 27.9636C35.5916 29.3528 34.3984 30.3074 32.7109 30.3074C31.0831 30.3074 29.8643 29.4551 29.7962 28.1767H26.0803C26.1399 31.2278 28.8672 33.35 32.7024 33.35Z"
        fill="#4C1D95" />
</svg>