<svg width="49" height="49" viewBox="0 0 49 49" fill="none" xmlns="http://www.w3.org/2000/svg">
    <circle cx="24.8125" cy="24.3887" r="24" fill="#8B5CF6" fill-opacity="0.4" />
    <path
        d="M17.071 33.2722C21.4602 33.2722 24.1108 29.9313 24.1193 24.1784C24.1278 18.4682 21.4432 15.1955 17.071 15.1955C12.6903 15.1955 10.0312 18.4597 10.0227 24.1784C10.0057 29.9142 12.6733 33.2637 17.071 33.2722ZM17.071 30.2125C15.0682 30.2125 13.7727 28.2012 13.7812 24.1784C13.7898 20.2154 15.0767 18.2211 17.071 18.2211C19.0568 18.2211 20.3523 20.2154 20.3523 24.1784C20.3608 28.2012 19.0653 30.2125 17.071 30.2125ZM26.7507 32.8887H39.1939V29.8716H31.8643V29.7523L34.4126 27.2551C38.0007 23.9824 38.9638 22.3461 38.9638 20.3603C38.9638 17.3347 36.4922 15.1955 32.7507 15.1955C29.0859 15.1955 26.5717 17.3858 26.5803 20.812H30.0831C30.0746 19.1415 31.1314 18.1188 32.7251 18.1188C34.2592 18.1188 35.4013 19.0733 35.4013 20.6074C35.4013 21.9966 34.549 22.9512 32.9638 24.4767L26.7507 30.2296V32.8887Z"
        fill="#4C1D95" />
</svg>