<svg width="49" height="49" viewBox="0 0 49 49" fill="none" xmlns="http://www.w3.org/2000/svg">
    <circle cx="24.8125" cy="24.167" r="24" fill="#8B5CF6" fill-opacity="0.4"/>
    <path d="M17.051 34.0505C21.4402 34.0505 24.0908 30.7096 24.0993 24.9568C24.1078 19.2465 21.4232 15.9738 17.051 15.9738C12.6703 15.9738 10.0112 19.238 10.0027 24.9568C9.98566 30.6926 12.6533 34.042 17.051 34.0505ZM17.051 30.9909C15.0482 30.9909 13.7527 28.9795 13.7612 24.9568C13.7698 20.9937 15.0567 18.9994 17.051 18.9994C19.0368 18.9994 20.3323 20.9937 20.3323 24.9568C20.3408 28.9795 19.0453 30.9909 17.051 30.9909ZM34.3244 16.2124H30.8557L26.5347 18.9482V22.221L30.5318 19.7153H30.6341V33.667H34.3244V16.2124Z" fill="#4C1D95"/>
</svg>