<svg width="184" height="40" viewBox="0 0 184 40" fill="none" xmlns="http://www.w3.org/2000/svg">
    <path d="M22.7393 4.91016H41.6219V35.751H22.7393V4.91016Z" fill="#FF5F00" />
    <path
        d="M24.6843 20.3326C24.6819 17.3629 25.3551 14.4315 26.6529 11.7604C27.9507 9.08932 29.8391 6.74841 32.1752 4.91487C29.2819 2.64101 25.8072 1.22704 22.1483 0.834543C18.4893 0.442048 14.7938 1.08687 11.484 2.69532C8.17422 4.30376 5.38372 6.81093 3.43144 9.93028C1.47915 13.0496 0.443848 16.6553 0.443848 20.3352C0.443848 24.0151 1.47915 27.6208 3.43144 30.7402C5.38372 33.8595 8.17422 36.3667 11.484 37.9751C14.7938 39.5836 18.4893 40.2284 22.1483 39.8359C25.8072 39.4434 29.2819 38.0294 32.1752 35.7556C29.8384 33.9215 27.9496 31.5797 26.6517 28.9076C25.3539 26.2355 24.6811 23.3031 24.6843 20.3325V20.3326Z"
        fill="#EB001B" />
    <path
        d="M62.0355 32.4873V31.8554H62.3079V31.7246H61.6597V31.8554H61.9157V32.4874L62.0355 32.4873ZM63.294 32.4873V31.7247H63.0979L62.8691 32.2694L62.6402 31.7246H62.4442V32.4873H62.5858V31.9099L62.7983 32.4057H62.9453L63.1579 31.9099V32.4873H63.294Z"
        fill="#F79E1B" />
    <path
        d="M63.9096 20.3325C63.9095 24.0127 62.874 27.6186 60.9213 30.7381C58.9687 33.8575 56.1777 36.3647 52.8675 37.9729C49.5573 39.5811 45.8614 40.2255 42.2023 39.8324C38.5431 39.4394 35.0684 38.0247 32.1753 35.7501C34.5104 33.9149 36.3983 31.5734 37.6964 28.9021C38.9946 26.2309 39.6691 23.2997 39.6691 20.3297C39.6691 17.3598 38.9946 14.4286 37.6964 11.7573C36.3983 9.08609 34.5104 6.74454 32.1753 4.90937C35.0684 2.63479 38.5431 1.22011 42.2023 0.82704C45.8615 0.433974 49.5574 1.07838 52.8676 2.68661C56.1778 4.29483 58.9687 6.80197 60.9214 9.92145C62.874 13.0409 63.9095 16.6469 63.9096 20.3271V20.3325Z"
        fill="#F79E1B" />
    <path
        d="M127.279 14.3086H122.341C122.177 14.3085 122.019 14.3668 121.895 14.473C121.771 14.5791 121.688 14.7262 121.663 14.8877L119.666 27.5513C119.656 27.6101 119.66 27.6701 119.676 27.7273C119.693 27.7845 119.721 27.8376 119.76 27.8827C119.798 27.9279 119.846 27.9641 119.901 27.9889C119.955 28.0137 120.013 28.0265 120.073 28.0265H122.431C122.594 28.0265 122.752 27.9681 122.877 27.8618C123.001 27.7555 123.083 27.6082 123.109 27.4466L123.647 24.031C123.673 23.8695 123.755 23.7224 123.879 23.6161C124.003 23.5098 124.161 23.4513 124.325 23.4512H125.888C129.141 23.4512 131.019 21.877 131.509 18.7575C131.73 17.3927 131.518 16.3204 130.879 15.5694C130.177 14.7447 128.932 14.3086 127.279 14.3086ZM127.849 18.9337C127.579 20.7057 126.225 20.7057 124.916 20.7057H124.171L124.694 17.3963C124.709 17.2995 124.758 17.2113 124.833 17.1476C124.907 17.084 125.002 17.049 125.1 17.049H125.442C126.334 17.049 127.175 17.049 127.609 17.5574C127.869 17.8606 127.948 18.3112 127.849 18.9337ZM142.041 18.8766H139.677C139.579 18.8766 139.484 18.9116 139.409 18.9753C139.335 19.039 139.285 19.1272 139.27 19.224L139.165 19.8854L139 19.6457C138.488 18.9026 137.346 18.6542 136.207 18.6542C133.594 18.6542 131.362 20.6335 130.927 23.41C130.701 24.795 131.022 26.1194 131.808 27.0429C132.528 27.8921 133.56 28.246 134.786 28.246C136.892 28.246 138.06 26.892 138.06 26.892L137.954 27.5491C137.945 27.6079 137.948 27.668 137.964 27.7253C137.981 27.7826 138.009 27.8357 138.047 27.881C138.086 27.9263 138.134 27.9627 138.188 27.9877C138.242 28.0127 138.301 28.0256 138.36 28.0257H140.49C140.654 28.0258 140.812 27.9674 140.937 27.8611C141.061 27.7548 141.143 27.6075 141.168 27.4459L142.447 19.3518C142.456 19.2932 142.453 19.2332 142.437 19.176C142.421 19.1189 142.392 19.0659 142.354 19.0207C142.315 18.9755 142.267 18.9392 142.213 18.9144C142.16 18.8895 142.101 18.8766 142.041 18.8766ZM138.745 23.4793C138.517 24.8304 137.445 25.7374 136.077 25.7374C135.39 25.7374 134.841 25.5171 134.489 25.0998C134.139 24.6853 134.007 24.0953 134.118 23.4382C134.331 22.0987 135.421 21.1621 136.768 21.1621C137.44 21.1621 137.985 21.3852 138.345 21.8062C138.705 22.2315 138.848 22.8251 138.745 23.4793ZM154.636 18.8766H152.26C152.148 18.8768 152.038 18.9043 151.939 18.9568C151.84 19.0093 151.755 19.0851 151.692 19.1778L148.414 24.0058L147.025 19.3662C146.982 19.2247 146.895 19.1007 146.776 19.0125C146.658 18.9244 146.514 18.8767 146.366 18.8766H144.031C143.965 18.8765 143.901 18.892 143.842 18.9218C143.784 18.9517 143.734 18.995 143.695 19.0483C143.657 19.1015 143.632 19.1632 143.623 19.228C143.613 19.2929 143.619 19.3591 143.64 19.4211L146.258 27.1029L143.797 30.5769C143.753 30.6385 143.727 30.711 143.722 30.7863C143.717 30.8617 143.732 30.937 143.767 31.0042C143.802 31.0713 143.854 31.1276 143.919 31.1668C143.983 31.2061 144.057 31.2269 144.133 31.2268H146.506C146.617 31.227 146.726 31.2003 146.825 31.1489C146.923 31.0976 147.007 31.0233 147.07 30.9322L154.974 19.5229C155.017 19.4612 155.042 19.3889 155.047 19.3139C155.052 19.2389 155.036 19.1641 155.001 19.0975C154.966 19.0309 154.914 18.9751 154.85 18.9362C154.785 18.8973 154.712 18.8767 154.636 18.8766Z"
        fill="#1F2937" />
    <path
        d="M162.505 14.3093H157.565C157.402 14.3094 157.244 14.3678 157.12 14.4739C156.996 14.5801 156.914 14.7271 156.888 14.8884L154.891 27.552C154.882 27.6107 154.885 27.6707 154.901 27.7278C154.917 27.785 154.946 27.838 154.984 27.8831C155.023 27.9283 155.071 27.9646 155.125 27.9894C155.179 28.0143 155.237 28.0272 155.297 28.0272H157.831C157.946 28.027 158.056 27.986 158.143 27.9116C158.23 27.8373 158.287 27.7343 158.305 27.6213L158.872 24.0318C158.897 23.8703 158.979 23.7231 159.103 23.6168C159.228 23.5105 159.386 23.452 159.549 23.4519H161.112C164.366 23.4519 166.242 21.8777 166.733 18.7582C166.955 17.3934 166.742 16.3211 166.103 15.5701C165.402 14.7455 164.158 14.3093 162.505 14.3093ZM163.074 18.9344C162.805 20.7065 161.451 20.7065 160.141 20.7065H159.397L159.92 17.397C159.935 17.3002 159.984 17.212 160.059 17.1483C160.133 17.0845 160.228 17.0496 160.326 17.0497H160.668C161.559 17.0497 162.401 17.0497 162.835 17.5581C163.095 17.8614 163.173 18.312 163.074 18.9344ZM177.266 18.8774H174.903C174.805 18.8771 174.71 18.912 174.635 18.9757C174.561 19.0395 174.512 19.1278 174.497 19.2247L174.392 19.8861L174.226 19.6464C173.714 18.9034 172.573 18.655 171.434 18.655C168.82 18.655 166.589 20.6342 166.154 23.4107C165.929 24.7957 166.249 26.1201 167.034 27.0437C167.757 27.8929 168.786 28.2467 170.013 28.2467C172.119 28.2467 173.286 26.8927 173.286 26.8927L173.181 27.5499C173.172 27.6087 173.175 27.6689 173.191 27.7263C173.207 27.7837 173.236 27.8369 173.275 27.8822C173.313 27.9276 173.361 27.9639 173.416 27.9888C173.47 28.0137 173.529 28.0266 173.588 28.0265H175.718C175.881 28.0264 176.039 27.9679 176.164 27.8616C176.288 27.7553 176.37 27.6081 176.395 27.4466L177.674 19.3525C177.683 19.2937 177.679 19.2336 177.663 19.1764C177.647 19.1192 177.618 19.0662 177.579 19.0211C177.541 18.9759 177.492 18.9397 177.438 18.9149C177.384 18.8901 177.325 18.8773 177.266 18.8774ZM173.97 23.4801C173.743 24.8311 172.669 25.7381 171.301 25.7381C170.616 25.7381 170.066 25.5179 169.713 25.1005C169.364 24.686 169.233 24.096 169.342 23.4389C169.557 22.0994 170.646 21.1628 171.992 21.1628C172.664 21.1628 173.21 21.386 173.57 21.8069C173.931 22.2323 174.074 22.8258 173.97 23.4801ZM180.054 14.6566L178.027 27.552C178.018 27.6107 178.021 27.6707 178.037 27.7278C178.054 27.785 178.082 27.838 178.12 27.8831C178.159 27.9283 178.207 27.9646 178.261 27.9894C178.315 28.0143 178.374 28.0272 178.433 28.0272H180.471C180.809 28.0272 181.097 27.7817 181.149 27.4473L183.148 14.7845C183.157 14.7258 183.153 14.6658 183.137 14.6086C183.121 14.5514 183.093 14.4983 183.054 14.4531C183.016 14.4079 182.968 14.3716 182.914 14.3466C182.86 14.3217 182.801 14.3087 182.742 14.3086H180.46C180.362 14.3089 180.267 14.3442 180.193 14.4079C180.119 14.4717 180.069 14.5599 180.054 14.6566Z"
        fill="#179BD7" />
    <path
        d="M99.1574 30.4886L99.5351 28.0898L98.6938 28.0703H94.6768L97.4684 10.3693C97.4767 10.3152 97.5042 10.2659 97.5458 10.2304C97.5874 10.1949 97.6404 10.1755 97.6952 10.1758H104.469C106.717 10.1758 108.269 10.6437 109.079 11.5673C109.459 12.0005 109.701 12.4533 109.818 12.9516C109.941 13.4744 109.943 14.099 109.823 14.8608L109.814 14.9164V15.4046L110.194 15.6197C110.484 15.7667 110.745 15.9654 110.963 16.2061C111.288 16.5765 111.498 17.0473 111.587 17.6055C111.679 18.1796 111.648 18.8627 111.498 19.6361C111.325 20.5257 111.045 21.3006 110.666 21.9346C110.333 22.5025 109.884 22.9945 109.349 23.3788C108.846 23.7355 108.249 24.0063 107.574 24.1796C106.919 24.35 106.173 24.4359 105.355 24.4359H104.828C104.451 24.4359 104.085 24.5717 103.798 24.8151C103.511 25.061 103.32 25.4008 103.26 25.774L103.221 25.9899L102.553 30.2178L102.523 30.3731C102.515 30.4222 102.502 30.4468 102.481 30.4634C102.462 30.4794 102.437 30.4883 102.412 30.4886H99.1574Z"
        fill="#E5E7EB" />
    <path
        d="M110.553 14.9727C110.533 15.1019 110.51 15.2341 110.484 15.3698C109.591 19.9559 106.535 21.5402 102.632 21.5402H100.645C100.167 21.5402 99.7651 21.8868 99.6907 22.3576L98.6733 28.8104L98.3852 30.6395C98.3737 30.712 98.3781 30.7862 98.398 30.8569C98.4179 30.9276 98.453 30.9931 98.5007 31.049C98.5484 31.1049 98.6076 31.1497 98.6743 31.1805C98.741 31.2113 98.8136 31.2272 98.887 31.2273H102.412C102.829 31.2273 103.184 30.924 103.249 30.5124L103.284 30.3333L103.948 26.122L103.99 25.8909C104.055 25.4779 104.41 25.1746 104.828 25.1746H105.355C108.77 25.1746 111.443 23.7881 112.224 19.7761C112.551 18.1001 112.382 16.7007 111.518 15.7164C111.244 15.412 110.917 15.1599 110.553 14.9727Z"
        fill="#179BD7" />
    <path
        d="M109.619 14.5982C109.333 14.5157 109.043 14.4513 108.75 14.4054C108.17 14.3163 107.585 14.2736 106.998 14.2776H101.689C101.487 14.2774 101.292 14.3496 101.138 14.481C100.985 14.6123 100.883 14.7943 100.852 14.9939L99.7229 22.1471L99.6904 22.3558C99.7256 22.1281 99.8411 21.9205 100.016 21.7706C100.191 21.6206 100.414 21.5383 100.644 21.5384H102.632C106.535 21.5384 109.591 19.9534 110.484 15.368C110.51 15.2322 110.533 15.1001 110.553 14.9708C110.317 14.8472 110.072 14.7436 109.819 14.661C109.752 14.639 109.686 14.6181 109.619 14.5982Z"
        fill="#222D65" />
    <path
        d="M100.852 14.995C100.883 14.7953 100.984 14.6133 101.138 14.482C101.291 14.3507 101.487 14.2788 101.689 14.2794H106.998C107.627 14.2794 108.214 14.3206 108.75 14.4073C109.112 14.4642 109.47 14.5495 109.819 14.6622C110.083 14.7495 110.327 14.8528 110.553 14.9719C110.819 13.2772 110.551 12.1232 109.635 11.0783C108.625 9.92802 106.801 9.43555 104.468 9.43555H97.6949C97.2183 9.43555 96.8117 9.78216 96.7381 10.2537L93.9168 28.1367C93.9037 28.2197 93.9087 28.3046 93.9315 28.3855C93.9543 28.4664 93.9943 28.5414 94.0489 28.6054C94.1034 28.6693 94.1712 28.7207 94.2475 28.756C94.3238 28.7912 94.4068 28.8096 94.4909 28.8097H98.6726L99.7226 22.1482L100.852 14.995Z"
        fill="#F79E1B" />
</svg>