
                <svg width="102" height="331" viewBox="0 0 102 331" fill="none" xmlns="http://www.w3.org/2000/svg">
                    <path opacity="0.3" fill-rule="evenodd" clip-rule="evenodd"
                        d="M7.36352 216.319C21.1213 250.331 47.3227 272.085 72.6577 293.119C86.6894 304.775 100.985 316.651 113.289 330.695L113.289 328.464C101.14 314.798 87.1743 303.189 73.4578 291.8C48.265 270.875 22.2164 249.243 8.61449 215.624C-19.5448 146.005 41.5638 81.9122 82.0008 39.5036L86.9054 34.3304C96.0534 24.7047 105.115 14.5063 113.289 3.2269L113.289 0.685331C104.886 12.4794 95.4886 23.1154 85.984 33.1208L81.0794 38.2746C40.3333 81.0179 -21.2394 145.599 7.36352 216.319"
                        fill="#6D28D9" />
                </svg>