<svg width="88" height="89" viewBox="0 0 88 89" fill="none" xmlns="http://www.w3.org/2000/svg">
                            <g clip-path="url(#clip0_808_56289)">
                                <path
                                    d="M59.3947 52.8847L68.3569 44.0163C71.7042 40.669 78.142 44.892 74.664 48.9838L63.8117 61.7515C63.3868 62.2511 62.8986 62.6941 62.3601 63.0687C60.6107 64.1867 58.5272 64.5592 56.4743 64.5592H40.3698C39.2051 64.5592 38.0409 64.6266 36.884 64.761L32.2521 65.2814L22.645 55.9585C22.645 55.9585 28.095 45.6666 38.7859 48.6248C40.7853 49.1784 42.8543 49.4419 44.929 49.4419H55.513C60.4956 49.4419 60.535 57.3588 55.4715 57.3588H46.2576"
                                    fill="#FFCDAC" />
                                <path
                                    d="M25.9413 77.4143L35.081 68.0375C35.0836 68.0349 35.0836 68.0308 35.081 68.0282L19.5725 52.9783C19.5699 52.9757 19.5658 52.9762 19.5632 52.9783L10.3374 62.5564L25.9413 77.4143Z"
                                    fill="#6BD5E1" />
                                <path
                                    d="M21.3042 25.0044C18.4073 25.2789 16.1406 27.7183 16.1406 30.6874V36.7656C16.1406 37.8151 16.9915 38.6665 18.0415 38.6665H31.0758C32.1259 38.6665 32.9767 37.8151 32.9767 36.7656V30.6874C32.9767 27.7162 30.707 25.2747 27.8063 25.0039"
                                    fill="#FFB677" />
                                <path
                                    d="M30.9369 19.4978C30.9369 23.0204 28.0814 25.8759 24.5588 25.8759C21.0361 25.8759 18.1807 23.0204 18.1807 19.4978C18.1807 15.9751 21.0361 13.1191 24.5588 13.1191C28.0814 13.1191 30.9369 15.9751 30.9369 19.4978Z"
                                    fill="#FFCDAC" />
                                <path
                                    d="M38.1412 25.0044C35.2442 25.2789 32.9771 27.7183 32.9771 30.6874V36.7656C32.9771 37.8151 33.8284 38.6665 34.8784 38.6665H47.9128C48.9628 38.6665 49.8136 37.8151 49.8136 36.7656V30.6874C49.8136 27.7162 47.5434 25.2747 44.6433 25.0039"
                                    fill="#F17777" />
                                <path
                                    d="M47.7734 19.4978C47.7734 23.0204 44.9179 25.8759 41.3952 25.8759C37.8726 25.8759 35.0166 23.0204 35.0166 19.4978C35.0166 15.9751 37.8726 13.1191 41.3952 13.1191C44.9179 13.1191 47.7734 15.9751 47.7734 19.4978Z"
                                    fill="#FFCDAC" />
                                <path
                                    d="M54.9776 25.0044C52.0801 25.2789 49.8135 27.7183 49.8135 30.6874V36.7656C49.8135 37.8151 50.6648 38.6665 51.7144 38.6665H64.7487C65.7987 38.6665 66.6501 37.8151 66.6501 36.7656V30.6874C66.6501 27.7162 64.3798 25.2747 61.4792 25.0039"
                                    fill="#FFD98E" />
                                <path
                                    d="M64.6098 19.4978C64.6098 23.0204 61.7538 25.8759 58.2311 25.8759C54.7085 25.8759 51.853 23.0204 51.853 19.4978C51.853 15.9751 54.7085 13.1191 58.2311 13.1191C61.7538 13.1191 64.6098 15.9751 64.6098 19.4978V19.4978Z"
                                    fill="#FFCDAC" />
                                <path
                                    d="M75.3936 43.0311C74.3757 42.0921 72.991 41.5121 71.5944 41.4395C70.0085 41.3575 68.5226 41.923 67.416 43.0301L59.855 50.5117C59.7056 50.2528 59.5349 50.0085 59.3435 49.7817C58.4133 48.6772 57.053 48.0692 55.5137 48.0692H44.9292C42.9334 48.0692 40.9863 47.8103 39.1425 47.3003C34.3353 45.9706 29.7429 46.9418 25.8607 50.1107C24.282 51.3994 23.1303 52.8011 22.4019 53.8232L20.5041 51.9814C20.2546 51.7392 19.9163 51.6017 19.5682 51.6017C19.5651 51.6017 19.5625 51.6017 19.5594 51.6017C19.1988 51.6043 18.8502 51.7542 18.6001 52.0136L9.37434 61.5912C9.1274 61.8474 8.99303 62.1919 9.00081 62.5478C9.00859 62.9042 9.15749 63.2425 9.41533 63.4879L25.0192 78.3458C25.2781 78.5922 25.6102 78.7152 25.9417 78.7152C26.2898 78.7152 26.6379 78.5797 26.8999 78.311L36.0396 68.9342C36.2891 68.678 36.4276 68.3278 36.4209 67.9698C36.4142 67.617 36.2663 67.2767 36.0131 67.0308L35.2173 66.2588L37.0388 66.0539C38.1407 65.9257 39.2613 65.8609 40.3705 65.8609H56.4746C59.0914 65.8609 61.3139 65.2886 63.0809 64.1597C63.0955 64.1504 63.11 64.1405 63.1245 64.1307C63.7575 63.6907 64.3318 63.1693 64.8309 62.5815L75.6831 49.8144C77.5404 47.6298 77.4242 44.9035 75.3936 43.0311V43.0311ZM25.9069 75.497L12.2345 62.4783L19.5999 54.8317L33.1924 68.0222L25.9069 75.497ZM73.6447 48.0816L62.7925 60.8493C62.448 61.2545 62.0532 61.6145 61.6179 61.9196C60.2914 62.7595 58.5612 63.1859 56.4746 63.1859H40.37C39.1586 63.1859 37.9337 63.257 36.7348 63.3966L32.7307 63.8459L24.3469 55.7101C24.9295 54.8463 26.0008 53.4502 27.5525 52.1833C30.7784 49.5498 34.438 48.7742 38.4292 49.8788C40.5054 50.4531 42.6921 50.7446 44.9292 50.7446H55.5137C57.4146 50.7446 57.922 52.3913 57.922 53.364C57.922 54.0748 57.6937 54.7513 57.2958 55.2203C56.8642 55.7282 56.2504 55.9855 55.4717 55.9855H46.2578C45.5191 55.9855 44.9204 56.5847 44.9204 57.3235C44.9204 58.0623 45.5191 58.661 46.2578 58.661H55.4717C57.0271 58.661 58.3988 58.054 59.3347 56.9521C60.1134 56.0359 60.5575 54.8312 60.5949 53.5435L69.3029 44.9268C70.5475 43.6822 72.492 43.9945 73.5799 44.9979C74.1423 45.5167 74.8987 46.6067 73.6447 48.0816V48.0816Z"
                                    fill="black" />
                                <path
                                    d="M42.086 56.9681C41.9173 56.2486 41.1978 55.8029 40.4782 55.971C39.7591 56.1396 39.3125 56.8592 39.4816 57.5788L39.494 57.6332C39.6388 58.2496 40.1882 58.6656 40.7952 58.6656C40.8963 58.6656 40.9991 58.6542 41.1018 58.6304C41.8214 58.4618 42.2675 57.7417 42.0989 57.0226L42.086 56.9681Z"
                                    fill="black" />
                                <path
                                    d="M18.0416 39.9688H31.0759C31.7856 39.9688 32.4424 39.7384 32.9768 39.3493C33.5111 39.7384 34.1679 39.9688 34.8777 39.9688H47.9125C48.6222 39.9688 49.279 39.7384 49.8134 39.3493C50.3477 39.7384 51.0045 39.9688 51.7142 39.9688H64.7486C66.5343 39.9688 67.9869 38.5156 67.9869 36.7299V30.6516C67.9869 27.9217 66.459 25.5503 64.1722 24.3804C65.2803 23.044 65.9475 21.3299 65.9475 19.4622C65.9475 15.2075 62.4861 11.7461 58.2314 11.7461C53.9767 11.7461 50.5153 15.2075 50.5153 19.4622C50.5153 21.3299 51.1825 23.0445 52.2906 24.3804C51.3023 24.8868 50.4562 25.6177 49.8134 26.5044C49.1706 25.6172 48.3244 24.8862 47.3356 24.3804C48.4437 23.0445 49.1109 21.3299 49.1109 19.4622C49.1109 15.2075 45.6495 11.7461 41.3948 11.7461C37.1401 11.7461 33.6787 15.2075 33.6787 19.4622C33.6787 21.3299 34.3464 23.0445 35.4546 24.3809C34.4657 24.8868 33.6196 25.6177 32.9768 26.5049C32.334 25.6177 31.4878 24.8868 30.499 24.3804C31.6072 23.0445 32.2743 21.3299 32.2743 19.4627C32.2743 15.2075 28.8129 11.7461 24.5582 11.7461C20.3041 11.7461 16.8427 15.2075 16.8427 19.4627C16.8427 21.3299 17.5098 23.0445 18.618 24.3809C16.3311 25.5508 14.8027 27.9228 14.8027 30.6522V36.7299C14.8027 38.5156 16.2559 39.9688 18.0416 39.9688V39.9688ZM58.2319 14.4215C61.0111 14.4215 63.2726 16.6825 63.2726 19.4622C63.2726 22.2414 61.0111 24.5028 58.2319 24.5028C55.4522 24.5028 53.1913 22.2419 53.1913 19.4622C53.1907 16.6825 55.4522 14.4215 58.2319 14.4215ZM54.7565 26.3482C55.8019 26.8779 56.9821 27.1783 58.2314 27.1783C59.4812 27.1783 60.6615 26.8779 61.7063 26.3482C63.7851 26.7103 65.312 28.5017 65.312 30.6516V36.7299C65.312 37.0407 65.0593 37.2933 64.7486 37.2933H51.7142C51.404 37.2933 51.1513 37.0407 51.1513 36.7299V30.6516C51.1508 28.5023 52.6782 26.7103 54.7565 26.3482ZM41.3953 14.4215C44.1745 14.4215 46.436 16.6825 46.436 19.4622C46.436 22.2414 44.1745 24.5028 41.3953 24.5028C38.6156 24.5028 36.3547 22.2419 36.3547 19.4622C36.3547 16.6825 38.6156 14.4215 41.3953 14.4215ZM37.9204 26.3482C38.9653 26.8779 40.1455 27.1783 41.3953 27.1783C42.6451 27.1783 43.8249 26.8779 44.8702 26.3482C46.9486 26.7103 48.4759 28.5017 48.4759 30.6516V36.7299C48.4759 37.0407 48.2232 37.2933 47.9125 37.2933H34.8782C34.5674 37.2933 34.3148 37.0407 34.3148 36.7299V30.6516C34.3148 28.5023 35.8421 26.7103 37.9204 26.3482ZM24.5587 14.4215C27.338 14.4215 29.5994 16.6825 29.5994 19.4622C29.5994 22.2414 27.338 24.5028 24.5587 24.5028C21.7795 24.5028 19.5181 22.2414 19.5181 19.4622C19.5181 16.6825 21.7795 14.4215 24.5587 14.4215ZM17.4782 30.6516C17.4782 28.5023 19.0055 26.7103 21.0838 26.3482C22.1292 26.8779 23.309 27.1783 24.5587 27.1783C25.8085 27.1783 26.9883 26.8779 28.0337 26.3482C30.1125 26.7103 31.6393 28.5017 31.6393 30.6516V36.7299C31.6393 37.0407 31.3867 37.2933 31.0759 37.2933H18.0416C17.7308 37.2933 17.4782 37.0407 17.4782 36.7299V30.6516Z"
                                    fill="black" />
                            </g>
                            <defs>
                                <clipPath id="clip0_808_56289">
                                    <rect width="68" height="68" fill="white" transform="translate(9 11.2148)" />
                                </clipPath>
                            </defs>
                        </svg>