<svg xmlns="http://www.w3.org/2000/svg" width="37" height="31" viewBox="0 0 37 31" fill="none">
<g clip-path="url(#clip0_808_51273)">
<path d="M36.0444 5.83408C33.9915 7.85487 32.0319 7.57025 30.5856 7.37102C29.3025 7.20025 28.696 7.14332 27.8795 7.94025C27.063 8.73718 26.9697 9.47719 26.8297 11.0426C26.6664 12.7787 26.4565 15.1695 24.4036 17.1903C22.3507 19.2111 20.3912 18.9265 18.9448 18.7273C17.6618 18.5565 17.0552 18.4996 16.2387 19.2965C15.4222 20.0934 15.3289 20.8334 15.189 22.3988C15.0257 24.135 14.8157 26.5258 12.7628 28.5466C10.7099 30.5673 8.75038 30.2827 7.30403 30.0835C6.02098 29.9127 5.41444 29.8558 4.59796 30.6527L2.26514 27.095C4.31802 25.0742 6.27759 25.3588 7.72394 25.5581C9.00699 25.7288 9.61352 25.7858 10.43 24.9888C11.2465 24.1919 11.3398 23.4519 11.4798 21.8865C11.6431 20.1503 11.853 17.7596 13.9059 15.7388C15.9588 13.718 17.9184 14.0026 19.3647 14.2018C20.6478 14.3726 21.2543 14.4295 22.0708 13.6326C22.8873 12.8357 22.9806 12.0957 23.1206 10.5303C23.2838 8.79411 23.4938 6.40332 25.5467 4.38254C27.5996 2.36175 29.5591 2.64637 31.0055 2.8456C32.2885 3.01637 32.8951 3.0733 33.7116 2.27637L36.0444 5.83408Z" fill="#FFD000"/>
<path d="M34.8082 3.95601C32.7553 5.9768 30.7957 5.69218 29.3494 5.49295C28.0663 5.32218 27.4598 5.26525 26.6433 6.06218C25.8268 6.85911 25.7335 7.59912 25.5935 9.16451C25.4302 10.9007 25.2203 13.2915 23.1674 15.3123C21.1378 17.333 19.1783 17.0769 17.7319 16.8776C16.4489 16.7069 15.8423 16.65 15.0258 17.4469C14.2094 18.2438 14.116 18.9838 13.9761 20.5492C13.8128 22.2854 13.6028 24.6762 11.5499 26.6969C9.49706 28.7177 7.53749 28.4331 6.09114 28.2339C4.80809 28.0631 4.20155 28.0062 3.38507 28.8031L1.05225 25.2454C3.10513 23.2246 5.0647 23.5092 6.51105 23.7085C7.7941 23.8792 8.40063 23.9362 9.21712 23.1392C10.0336 22.3423 10.1269 21.6023 10.2669 20.0369C10.4302 18.3007 10.6401 15.9099 12.693 13.8892C14.7459 11.8684 16.7055 12.153 18.1518 12.3522C19.4349 12.523 20.0414 12.5799 20.8579 11.783C21.6744 10.9861 21.7677 10.2461 21.9077 8.68066C22.071 6.9445 22.2809 4.55371 24.3338 2.53293C26.3867 0.512143 28.3462 0.796761 29.7926 0.995993C31.0756 1.16676 31.6822 1.22369 32.4987 0.426758L34.8082 3.95601Z" stroke="#E5E7EB" stroke-miterlimit="10"/>
</g>
<defs>
<clipPath id="clip0_808_51273">
<rect width="35.2956" height="30.6818" fill="white" transform="translate(0.749023)"/>
</clipPath>
</defs>
</svg>