<svg width="18" height="18" viewBox="0 0 18 18" fill="none" xmlns="http://www.w3.org/2000/svg">
    <path
        d="M17.2992 12.8037L13.5754 9.57884C12.807 8.87524 12.7479 7.70257 13.3981 6.8817L16.649 3.18779C17.3583 2.42556 17.2401 1.19425 16.4717 0.490651C15.7033 -0.212951 14.462 -0.0956835 13.7527 0.666552L10.5018 4.36046C9.85162 5.18133 8.66947 5.23996 7.84195 4.59499L4.17726 1.37015C3.34975 0.666552 2.16759 0.725185 1.4583 1.54605C0.749004 2.30829 0.86722 3.53959 1.63562 4.24319L5.35942 7.46804C6.12782 8.17164 6.24604 9.34431 5.53675 10.1652L2.28581 13.8591C1.57651 14.6213 1.69473 15.8526 2.46313 16.5562C3.23154 17.2598 4.4728 17.1426 5.1821 16.3803L8.43303 12.6864C9.14233 11.9242 10.3245 11.8069 11.152 12.5105L14.8758 15.7354C15.6442 16.439 16.8855 16.3217 17.5948 15.5595C18.1858 14.68 18.1267 13.4487 17.2992 12.8037Z"
        fill="#FFD000" />
</svg>