<svg width="137" height="582" viewBox="0 0 137 582" fill="none" xmlns="http://www.w3.org/2000/svg">
                    <path opacity="0.3" fill-rule="evenodd" clip-rule="evenodd"
                        d="M12.9807 380.189C37.2343 440.148 83.4244 478.499 128.087 515.579C152.824 536.127 178.025 557.064 199.715 581.822L199.715 577.889C178.3 553.797 153.679 533.331 129.498 513.254C85.0857 476.366 39.1647 438.231 15.186 378.964C-34.4559 256.232 73.2722 143.244 144.558 68.4822L153.205 59.3624C169.332 42.3932 185.306 24.4145 199.715 4.53017L199.715 0.0496579C184.903 20.8414 168.336 39.5915 151.58 57.2299L142.934 66.3156C71.1029 141.667 -37.4432 255.517 12.9807 380.189"
                        fill="#6D28D9" />
                </svg>