<svg
    xmlns="http://www.w3.org/2000/svg" width="20"
    height="14" viewBox="0 0 20 14" fill="none">
    <path
        d="M6.47982 0.396154C6.20943 0.125761 5.77104 0.125761 5.50065 0.396154L1.09435 4.80245C0.823956 5.07284 0.823956 5.51124 1.09435 5.78163C1.36474 6.05202 1.80313 6.05202 2.07353 5.78163L5.99023 1.86492L9.90694 5.78163C10.1773 6.05202 10.6157 6.05202 10.8861 5.78163C11.1565 5.51124 11.1565 5.07284 10.8861 4.80245L6.47982 0.396154ZM5.29785 0.885742L5.29785 12.5095L6.68262 12.5095L6.68262 0.885742L5.29785 0.885742Z"
        fill="#111827" />
    <path
        d="M14.3463 12.9984C14.6167 13.2688 15.0551 13.2688 15.3255 12.9984L19.7318 8.59208C20.0022 8.32169 20.0022 7.8833 19.7318 7.6129C19.4614 7.34251 19.023 7.34251 18.7526 7.6129L14.8359 11.5296L10.9192 7.6129C10.6488 7.34251 10.2104 7.34251 9.94005 7.6129C9.66966 7.8833 9.66966 8.32169 9.94005 8.59208L14.3463 12.9984ZM15.5283 12.5088L15.5283 0.884999L14.1436 0.884999L14.1436 12.5088L15.5283 12.5088Z"
        fill="#4B5563" />
</svg>