<svg width="81" height="69" viewBox="0 0 81 69" fill="none" xmlns="http://www.w3.org/2000/svg">
<path opacity="0.3" fill-rule="evenodd" clip-rule="evenodd" d="M80.0046 10.9954C68.075 16.8956 62.1102 23.8283 62.1102 31.7937C67.195 32.3837 71.3997 34.4733 74.7243 38.0626C78.049 41.652 79.7113 45.8066 79.7113 50.5268C79.7113 55.542 78.0979 59.7705 74.871 63.2123C71.6441 66.6541 67.5861 68.375 62.6969 68.375C57.221 68.375 52.4786 66.1379 48.4694 61.6635C44.4603 57.1891 42.4557 51.7561 42.4557 45.3642C42.4557 26.1884 53.114 11.1921 74.431 0.375L80.0046 10.9954ZM37.9044 10.9954C25.8769 16.8956 19.8633 23.8283 19.8633 31.7937C25.0458 32.3837 29.2994 34.4733 32.624 38.0626C35.9487 41.652 37.611 45.8066 37.611 50.5268C37.611 55.542 35.9731 59.7705 32.6974 63.2123C29.4216 66.6541 25.3392 68.375 20.45 68.375C14.9741 68.375 10.2561 66.1379 6.29582 61.6635C2.33557 57.1891 0.355469 51.7561 0.355469 45.3642C0.355469 26.1884 10.9649 11.1921 32.184 0.375L37.9044 10.9954Z" fill="#6D28D9"/>
</svg>
